<?xml version="1.0" encoding="UTF-8"?><svg id="Layer_1" xmlns="http://www.w3.org/2000/svg" viewBox="0 0 575.8283 178.0972"><circle cx="7.708" cy="34.7198" r="5.4837" style="fill:#91bf6d;"/><circle cx="7.708" cy="59.6974" r="5.4837" style="fill:#f89721;"/><circle cx="7.708" cy="140.6009" r="5.4837" style="fill:#ef4347;"/><circle cx="7.708" cy="86.2615" r="5.4837" style="fill:#009789; stroke:#009789; stroke-linecap:round; stroke-linejoin:round; stroke-width:.71px;"/><g style="isolation:isolate;"><path d="m30.937,29.498v10.7886h-1.4004v-10.7886h1.4004Z" style="fill:#010101;"/><path d="m33.0884,38.8535c.4238.2646,1.165.5513,1.8662.5513,1.0273,0,1.5039-.5054,1.5039-1.1528,0-.6772-.4092-1.0317-1.4385-1.4175-1.3984-.5059-2.0605-1.2676-2.0576-2.1948,0-1.2471,1.0137-2.27,2.6787-2.27.7871,0,1.4658.2134,1.8955.4761l-.3496,1.0234c-.2979-.1865-.8652-.4556-1.5879-.4556-.8311,0-1.2822.479-1.2822,1.0625,0,.6406.4551.9268,1.4697,1.3203,1.334.4971,2.0273,1.1699,2.0312,2.3257,0,1.3721-1.0664,2.3325-2.8955,2.3325-.8477,0-1.6309-.2192-2.1758-.5396l.3418-1.0615Z" style="fill:#010101;"/><path d="m46.6304,36.3418c0,2.8667-1.9893,4.1211-3.8496,4.1211-2.0996,0-3.7217-1.5303-3.7217-3.9878,0-2.5908,1.7031-4.1055,3.8447-4.1055,2.2256,0,3.7266,1.6143,3.7266,3.9722Zm-6.1377.0898c0,1.6982.9727,2.9761,2.3457,2.9761,1.3506,0,2.3594-1.2607,2.3594-3.0181,0-1.3091-.6602-2.9653-2.333-2.9653-1.6533,0-2.3721,1.5396-2.3721,3.0073Z" style="fill:#010101;"/><path d="m53.9429,40.0063c-.3701.1812-1.1797.4482-2.2207.4482-2.334,0-3.8633-1.5884-3.8633-3.9551,0-2.3862,1.6279-4.1274,4.1592-4.1274.8301,0,1.5771.2104,1.957.4126l-.3135,1.0811c-.3447-.1836-.8711-.3726-1.6455-.3726-1.7666,0-2.7344,1.3242-2.7314,2.9316,0,1.7939,1.1533,2.897,2.6973,2.897.7881,0,1.3252-.2002,1.7227-.3721l.2383,1.0566Z" style="fill:#010101;"/><path d="m56.3882,32.5459l1.6914,4.5752c.1816.5117.3711,1.1187.498,1.5796h.0391c.1387-.4556.3096-1.0488.4941-1.6108l1.5312-4.5439h1.4941l-2.1182,5.5137c-1.0029,2.6621-1.6924,4.0166-2.6514,4.8555-.6963.6021-1.3828.8413-1.7266.9038l-.3496-1.1768c.3535-.1113.8115-.3315,1.2334-.688.3789-.3071.8506-.8525,1.1777-1.5679.0713-.1484.1084-.2524.1084-.3394,0-.0791-.0225-.1909-.0977-.3613l-2.8555-7.1396h1.5312Z" style="fill:#010101;"/><path d="m67.6431,40.2866l-.124-.9775h-.042c-.4248.604-1.2598,1.1538-2.3682,1.1538-1.5645,0-2.3643-1.1104-2.3643-2.2212,0-1.875,1.6611-2.9053,4.6514-2.8838v-.1646c0-.6289-.1768-1.7944-1.7617-1.7856-.7207,0-1.4736.2148-2.0166.5767l-.3203-.936c.6416-.4136,1.5781-.6787,2.5557-.6787,2.3662,0,2.9434,1.6177,2.9434,3.1685v2.896c0,.6611.0293,1.3208.1162,1.8525h-1.2695Zm-.2188-3.9526c-1.5234-.0327-3.2676.2412-3.2676,1.7383,0,.9238.6074,1.3477,1.3145,1.3477,1.0186,0,1.6621-.6416,1.8857-1.2964.0488-.1494.0674-.3086.0674-.4434v-1.3462Z" style="fill:#010101;"/><path d="m71.063,34.6362c0-.8076-.0264-1.4487-.0645-2.0903h1.2441l.0781,1.2729h.0391c.3809-.7271,1.2812-1.4492,2.5596-1.4492,1.0635,0,2.7285.6396,2.7285,3.2993v4.6177h-1.4014v-4.4634c0-1.251-.4717-2.2993-1.7891-2.2993-.9238,0-1.6445.6567-1.8975,1.4448-.0576.1719-.0967.4214-.0967.6528v4.665h-1.4004v-5.6504Z" style="fill:#010101;"/><path d="m81.5161,30.3574c.001.479-.3359.875-.8955.875-.5098,0-.8516-.396-.8496-.875-.002-.4834.3594-.8765.875-.8765.5254,0,.8662.3848.8701.8765Zm-1.5732,9.9292v-7.7407h1.4004v7.7407h-1.4004Z" style="fill:#010101;"/><path d="m90.3677,28.9219v9.3682c0,.688.0264,1.4624.0645,1.9966h-1.252l-.0713-1.3389h-.0371c-.4307.8652-1.3623,1.5151-2.626,1.5151-1.876,0-3.3232-1.5859-3.3232-3.9331-.0117-2.5874,1.5938-4.1602,3.4785-4.1602,1.1885,0,1.9893.5571,2.3359,1.1743h.0312v-4.6221h1.3994Zm-1.3994,6.7734c0-.1831-.0166-.417-.0586-.6016-.2188-.8882-.9785-1.6201-2.0391-1.6201-1.458,0-2.3291,1.2788-2.3291,2.9795,0,1.5723.7822,2.8779,2.3008,2.8779.9424,0,1.7979-.6362,2.0566-1.6904.0508-.1851.0693-.3833.0693-.6035v-1.3418Z" style="fill:#010101;"/><path d="m93.4985,36.6704c.0273,1.9028,1.2354,2.6875,2.6484,2.6875,1.0078,0,1.624-.1807,2.1445-.3965l.2471,1c-.4932.2251-1.3535.4932-2.583.4932-2.3789,0-3.8096-1.5845-3.8096-3.9067,0-2.3462,1.3828-4.1782,3.6426-4.1782,2.5254,0,3.1865,2.2158,3.1865,3.6406,0,.2959-.0176.5073-.0488.6602h-5.4277Zm4.1201-1.0127c.0137-.8872-.3633-2.2788-1.9414-2.2788-1.4375,0-2.0498,1.2988-2.1621,2.2788h4.1035Z" style="fill:#010101;"/><path d="m103.9194,38.8535c.4238.2646,1.165.5513,1.8662.5513,1.0273,0,1.5039-.5054,1.5039-1.1528,0-.6772-.4092-1.0317-1.4385-1.4175-1.3984-.5059-2.0605-1.2676-2.0576-2.1948,0-1.2471,1.0137-2.27,2.6787-2.27.7871,0,1.4658.2134,1.8955.4761l-.3496,1.0234c-.2979-.1865-.8652-.4556-1.5879-.4556-.8311,0-1.2822.479-1.2822,1.0625,0,.6406.4551.9268,1.4697,1.3203,1.334.4971,2.0273,1.1699,2.0312,2.3257,0,1.3721-1.0664,2.3325-2.8955,2.3325-.8477,0-1.6309-.2192-2.1758-.5396l.3418-1.0615Z" style="fill:#010101;"/><path d="m110.9634,32.5459l1.6914,4.5752c.1816.5117.3711,1.1187.498,1.5796h.0391c.1387-.4556.3096-1.0488.4941-1.6108l1.5312-4.5439h1.4941l-2.1182,5.5137c-1.0029,2.6621-1.6924,4.0166-2.6514,4.8555-.6963.6021-1.3828.8413-1.7266.9038l-.3496-1.1768c.3535-.1113.8115-.3315,1.2334-.688.3789-.3071.8506-.8525,1.1777-1.5679.0703-.1484.1084-.2524.1084-.3394,0-.0791-.0225-.1909-.0977-.3613l-2.8555-7.1396h1.5312Z" style="fill:#010101;"/><path d="m117.9907,34.6362c0-.8076-.0264-1.4487-.0645-2.0903h1.2441l.0781,1.2729h.0391c.3809-.7271,1.2812-1.4492,2.5596-1.4492,1.0635,0,2.7285.6396,2.7285,3.2993v4.6177h-1.4014v-4.4634c0-1.251-.4717-2.2993-1.7891-2.2993-.9238,0-1.6445.6567-1.8975,1.4448-.0576.1719-.0967.4214-.0967.6528v4.665h-1.4004v-5.6504Z" style="fill:#010101;"/><path d="m128.4956,30.3174v2.2285h2.0234v1.0664h-2.0234v4.1719c0,.9644.2773,1.5093,1.0645,1.5093.3652,0,.6309-.0449.8164-.1021l.0645,1.0698c-.2734.1074-.7109.1934-1.2578.1934-.6475,0-1.1846-.2134-1.5195-.5957-.3887-.4272-.5469-1.1099-.5469-2.0195v-4.2271h-1.1992v-1.0664h1.1992v-1.8652l1.3789-.3633Z" style="fill:#010101;"/><path d="m132.1021,28.9219h1.4004v4.8325h.0322c.2334-.3955.583-.75,1.0127-.9941.4102-.2432.9072-.3906,1.4414-.3906,1.0439,0,2.6982.6362,2.6982,3.3071v4.6099h-1.4014v-4.4561c0-1.2495-.4717-2.2983-1.7891-2.2983-.9209,0-1.6299.6436-1.8994,1.4048-.0732.1968-.0947.4106-.0947.6709v4.6787h-1.4004v-11.3647Z" style="fill:#010101;"/><path d="m145.2739,40.2866l-.124-.9775h-.042c-.4248.604-1.2598,1.1538-2.3682,1.1538-1.5645,0-2.3643-1.1104-2.3643-2.2212,0-1.875,1.6611-2.9053,4.6514-2.8838v-.1646c0-.6289-.1768-1.7944-1.7617-1.7856-.7207,0-1.4736.2148-2.0166.5767l-.3203-.936c.6416-.4136,1.5781-.6787,2.5557-.6787,2.3662,0,2.9434,1.6177,2.9434,3.1685v2.896c0,.6611.0293,1.3208.1162,1.8525h-1.2695Zm-.2188-3.9526c-1.5234-.0327-3.2676.2412-3.2676,1.7383,0,.9238.6074,1.3477,1.3145,1.3477,1.0186,0,1.6621-.6416,1.8857-1.2964.0488-.1494.0674-.3086.0674-.4434v-1.3462Z" style="fill:#010101;"/><path d="m148.4946,38.8535c.4238.2646,1.165.5513,1.8662.5513,1.0273,0,1.5039-.5054,1.5039-1.1528,0-.6772-.4092-1.0317-1.4385-1.4175-1.3984-.5059-2.0605-1.2676-2.0576-2.1948,0-1.2471,1.0137-2.27,2.6787-2.27.7871,0,1.4658.2134,1.8955.4761l-.3496,1.0234c-.2979-.1865-.8652-.4556-1.5879-.4556-.8311,0-1.2822.479-1.2822,1.0625,0,.6406.4551.9268,1.4697,1.3203,1.334.4971,2.0273,1.1699,2.0312,2.3257,0,1.3721-1.0664,2.3325-2.8955,2.3325-.8477,0-1.6309-.2192-2.1758-.5396l.3418-1.0615Z" style="fill:#010101;"/><path d="m155.8179,36.6704c.0273,1.9028,1.2354,2.6875,2.6484,2.6875,1.0078,0,1.624-.1807,2.1445-.3965l.2461,1c-.4922.2251-1.3525.4932-2.582.4932-2.3789,0-3.8096-1.5845-3.8096-3.9067,0-2.3462,1.3828-4.1782,3.6426-4.1782,2.5254,0,3.1865,2.2158,3.1865,3.6406,0,.2959-.0176.5073-.0488.6602h-5.4277Zm4.1201-1.0127c.0137-.8872-.3633-2.2788-1.9424-2.2788-1.4365,0-2.0488,1.2988-2.1611,2.2788h4.1035Z" style="fill:#010101;"/></g><g style="isolation:isolate;"><path d="m29.4932,57.1084c0-.9868-.0264-1.791-.0635-2.5215h1.2578l.0771,1.3193h.0322c.5635-.9443,1.4902-1.4956,2.748-1.4956,1.874,0,3.2861,1.5786,3.2861,3.9282,0,2.79-1.707,4.165-3.5205,4.165-1.0352,0-1.9248-.4507-2.3857-1.2197h-.0322v4.2129h-1.3994v-8.3887Zm1.3994,2.0688c0,.1982.0205.3921.0615.5723.2529.9839,1.1055,1.6514,2.1045,1.6514,1.4922,0,2.3535-1.2246,2.3535-2.999,0-1.5444-.8086-2.8726-2.2988-2.8726-.959,0-1.8633.6787-2.1299,1.7368-.0459.1816-.0908.3872-.0908.5723v1.3389Z" style="fill:#010101;"/><path d="m42.501,62.3276v-2.8394h-4.8311v-.9189l4.6348-6.646h1.5254v6.4746h1.459v1.0903h-1.459v2.8394h-1.3291Zm0-3.9297v-3.4814c0-.543.0176-1.0854.0537-1.6309l-.0547-.0083c-.3252.6201-.5781,1.0674-.8662,1.5483l-2.5361,3.54-.0039.0322h3.4072Z" style="fill:#010101;"/><path d="m52.5615,53.1035h-3.9609l-.3994,2.6748c.2363-.0327.4609-.0576.8438-.0576.8096.001,1.5967.1748,2.2451.5635.8057.4521,1.4834,1.3594,1.4834,2.6714,0,2.0308-1.6123,3.5483-3.8701,3.5483-1.1416,0-2.0928-.3213-2.5957-.6411l.3574-1.0742c.4258.2554,1.2754.5845,2.2275.5845,1.3174,0,2.4639-.8726,2.4551-2.27-.0078-1.3374-.9072-2.2905-2.9834-2.2905-.6035,0-1.0635.0503-1.4473.106l.6729-4.9951h4.9717v1.1802Z" style="fill:#010101;"/><path d="m61.4854,57.02c0,3.5298-1.3213,5.4839-3.6191,5.4839-2.0322,0-3.4131-1.9028-3.4473-5.3398,0-3.4971,1.5088-5.4165,3.6221-5.4165,2.1924,0,3.4443,1.959,3.4443,5.2725Zm-5.6494.1475c-.002,2.7129.832,4.2441,2.1104,4.2441,1.4365,0,2.1221-1.6787,2.1221-4.3281,0-2.5679-.6504-4.2402-2.1113-4.2402-1.2256,0-2.1221,1.5044-2.1211,4.3242Z" style="fill:#010101;"/></g><g style="isolation:isolate;"><path d="m38.6411,141.0498c-.084-1.4985-.1816-3.3198-.1729-4.6533h-.0439c-.3711,1.252-.8184,2.6118-1.3574,4.0898l-1.9043,5.2334h-1.0527l-1.7578-5.1372c-.5137-1.5244-.9326-2.9082-1.2354-4.186h-.0371c-.0381,1.3447-.1074,3.1406-.2119,4.7598l-.2871,4.6309h-1.3232l.751-10.7886h1.7793l1.8369,5.2222c.4443,1.3208.8066,2.5088,1.0869,3.6343h.042c.2832-1.0923.6602-2.2812,1.1416-3.6333l1.9248-5.2231h1.7812l.6689,10.7886h-1.3701l-.2588-4.7373Z" style="fill:#010101;"/><path d="m48.8794,143.6685c0,.812.0264,1.5063.0645,2.1187h-1.2441l-.0752-1.2656h-.0391c-.3564.6226-1.1748,1.4419-2.5625,1.4419-1.2109,0-2.666-.6792-2.666-3.3926v-4.5244h1.4014v4.2769c0,1.4741.459,2.4785,1.7295,2.4785.9434,0,1.6025-.6602,1.8633-1.292.0723-.2031.1279-.4546.1279-.7222v-4.7412h1.4004v5.6221Z" style="fill:#010101;"/><path d="m51.2231,134.4224h1.4004v11.3647h-1.4004v-11.3647Z" style="fill:#010101;"/><path d="m56.688,135.8179v2.2285h2.0225v1.0664h-2.0225v4.1719c0,.9644.2773,1.5093,1.0645,1.5093.3652,0,.6309-.0449.8164-.1021l.0645,1.0693c-.2734.1079-.7109.1938-1.2578.1938-.6475,0-1.1846-.2134-1.5195-.5957-.3887-.4272-.5469-1.1099-.5469-2.0195v-4.2271h-1.1992v-1.0664h1.1992v-1.8652l1.3789-.3633Z" style="fill:#010101;"/><path d="m61.8687,135.8579c.001.479-.3359.875-.8955.875-.5098,0-.8516-.396-.8496-.875-.002-.4834.3594-.8765.875-.8765.5254,0,.8662.3848.8701.8765Zm-1.5732,9.9292v-7.7407h1.4004v7.7407h-1.4004Z" style="fill:#010101;"/><path d="m64.0356,140.5679c0-.9868-.0264-1.791-.0635-2.5215h1.2578l.0771,1.3193h.0322c.5635-.9443,1.4902-1.4956,2.748-1.4956,1.874,0,3.2861,1.5786,3.2861,3.9282,0,2.79-1.707,4.165-3.5205,4.165-1.0352,0-1.9248-.4507-2.3857-1.2197h-.0322v4.2129h-1.3994v-8.3887Zm1.3994,2.0688c0,.1982.0205.3921.0615.5723.2529.9839,1.1055,1.6514,2.1045,1.6514,1.4922,0,2.3535-1.2246,2.3535-2.999,0-1.5444-.8086-2.8726-2.2988-2.8726-.959,0-1.8633.6787-2.1299,1.7368-.0459.1816-.0908.3872-.0908.5723v1.3389Z" style="fill:#010101;"/><path d="m73.1431,134.4224h1.4004v11.3647h-1.4004v-11.3647Z" style="fill:#010101;"/><path d="m77.7065,142.1709c.0273,1.9028,1.2354,2.6875,2.6484,2.6875,1.0078,0,1.624-.1807,2.1445-.3965l.2461,1c-.4922.2251-1.3525.4932-2.582.4932-2.3789,0-3.8096-1.5845-3.8096-3.9067,0-2.3462,1.3828-4.1782,3.6426-4.1782,2.5254,0,3.1865,2.2158,3.1865,3.6406,0,.2959-.0176.5073-.0488.6602h-5.4277Zm4.1201-1.0127c.0137-.8872-.3633-2.2788-1.9424-2.2788-1.4365,0-2.0488,1.2988-2.1611,2.2788h4.1035Z" style="fill:#010101;"/><path d="m95.0073,134.4224v9.3682c0,.688.0264,1.4624.0645,1.9966h-1.252l-.0713-1.3384h-.0371c-.4307.8647-1.3623,1.5146-2.626,1.5146-1.876,0-3.3232-1.5859-3.3232-3.9331-.0117-2.5874,1.5938-4.1602,3.4785-4.1602,1.1885,0,1.9893.5571,2.3359,1.1743h.0312v-4.6221h1.3994Zm-1.3994,6.7734c0-.1831-.0166-.417-.0586-.6016-.2188-.8882-.9785-1.6201-2.0391-1.6201-1.458,0-2.3291,1.2788-2.3291,2.9795,0,1.5723.7822,2.8779,2.3008,2.8779.9424,0,1.7979-.6362,2.0566-1.6904.0508-.1851.0693-.3833.0693-.6035v-1.3418Z" style="fill:#010101;"/><path d="m104.3569,141.8423c0,2.8667-1.9893,4.1211-3.8496,4.1211-2.0996,0-3.7217-1.5303-3.7217-3.9878,0-2.5908,1.7031-4.1055,3.8447-4.1055,2.2256,0,3.7266,1.6143,3.7266,3.9722Zm-6.1377.0898c0,1.6982.9727,2.9761,2.3457,2.9761,1.3506,0,2.3594-1.2612,2.3594-3.0181,0-1.3096-.6602-2.9653-2.333-2.9653-1.6533,0-2.3721,1.5396-2.3721,3.0073Z" style="fill:#010101;"/><path d="m106.1343,140.1372c0-.8081-.0264-1.4492-.0645-2.0908h1.2236l.0742,1.2461h.0391c.4316-.7363,1.1533-1.4224,2.4443-1.4224,1.0488,0,1.8496.6387,2.1816,1.5518h.0322c.248-.4404.5527-.7749.873-1.0078.4688-.3521.9736-.5439,1.7031-.5439,1.0342,0,2.5557.666,2.5557,3.3589v4.5581h-1.374v-4.3779c0-1.4995-.5527-2.3872-1.6797-2.3872-.8076,0-1.4268.5869-1.6748,1.2671-.0674.2031-.1152.4556-.1152.7061v4.792h-1.375v-4.6455c0-1.2329-.5449-2.1196-1.6084-2.1196-.877,0-1.5205.7002-1.7549,1.4053-.0693.2065-.1064.4521-.1064.6934v4.6665h-1.374v-5.6499Z" style="fill:#010101;"/><path d="m123.77,145.7871l-.124-.9775h-.042c-.4248.604-1.2598,1.1538-2.3682,1.1538-1.5645,0-2.3643-1.1104-2.3643-2.2212,0-1.875,1.6611-2.9053,4.6514-2.8838v-.1646c0-.6289-.1768-1.7944-1.7617-1.7856-.7207,0-1.4736.2148-2.0166.5767l-.3203-.936c.6416-.4136,1.5781-.6787,2.5557-.6787,2.3662,0,2.9434,1.6177,2.9434,3.1685v2.896c0,.6611.0293,1.3208.1162,1.8525h-1.2695Zm-.2188-3.9526c-1.5234-.0327-3.2676.2412-3.2676,1.7383,0,.9238.6074,1.3477,1.3145,1.3477,1.0186,0,1.6621-.6416,1.8857-1.2964.0488-.1494.0674-.3086.0674-.4434v-1.3462Z" style="fill:#010101;"/><path d="m128.7632,135.8579c.001.479-.3359.875-.8955.875-.5098,0-.8516-.396-.8496-.875-.002-.4834.3594-.8765.875-.8765.5254,0,.8662.3848.8701.8765Zm-1.5732,9.9292v-7.7407h1.4004v7.7407h-1.4004Z" style="fill:#010101;"/><path d="m130.9341,140.1372c0-.8081-.0264-1.4492-.0645-2.0908h1.2441l.0781,1.2729h.0391c.3809-.7271,1.2812-1.4492,2.5596-1.4492,1.0635,0,2.7285.6396,2.7285,3.2993v4.6177h-1.4014v-4.4634c0-1.251-.4717-2.2993-1.7891-2.2993-.9238,0-1.6445.6567-1.8975,1.4448-.0576.1719-.0967.4214-.0967.6528v4.665h-1.4004v-5.6499Z" style="fill:#010101;"/><path d="m139.6147,144.354c.4238.2646,1.165.5513,1.8662.5513,1.0273,0,1.5039-.5054,1.5039-1.1528,0-.6772-.4092-1.0317-1.4385-1.4175-1.3984-.5063-2.0605-1.2676-2.0576-2.1948,0-1.2471,1.0137-2.27,2.6787-2.27.7871,0,1.4658.2134,1.8955.4761l-.3496,1.0234c-.2979-.1865-.8652-.4556-1.5879-.4556-.8311,0-1.2822.479-1.2822,1.0625,0,.6406.4551.9268,1.4697,1.3203,1.334.4971,2.0273,1.1699,2.0312,2.3257,0,1.3721-1.0664,2.3325-2.8955,2.3325-.8477,0-1.6309-.2192-2.1758-.5396l.3418-1.0615Z" style="fill:#010101;"/><path d="m156.2222,134.4224v9.3682c0,.688.0264,1.4624.0645,1.9966h-1.252l-.0713-1.3384h-.0371c-.4307.8647-1.3623,1.5146-2.626,1.5146-1.876,0-3.3232-1.5859-3.3232-3.9331-.0117-2.5874,1.5938-4.1602,3.4785-4.1602,1.1885,0,1.9893.5571,2.3359,1.1743h.0312v-4.6221h1.3994Zm-1.3994,6.7734c0-.1831-.0166-.417-.0586-.6016-.2188-.8882-.9785-1.6201-2.0391-1.6201-1.458,0-2.3291,1.2788-2.3291,2.9795,0,1.5723.7822,2.8779,2.3008,2.8779.9424,0,1.7979-.6362,2.0566-1.6904.0508-.1851.0693-.3833.0693-.6035v-1.3418Z" style="fill:#010101;"/><path d="m159.353,142.1709c.0273,1.9028,1.2354,2.6875,2.6484,2.6875,1.0078,0,1.624-.1807,2.1445-.3965l.2461,1c-.4922.2251-1.3525.4932-2.582.4932-2.3789,0-3.8096-1.5845-3.8096-3.9067,0-2.3462,1.3828-4.1782,3.6426-4.1782,2.5254,0,3.1865,2.2158,3.1865,3.6406,0,.2959-.0176.5073-.0488.6602h-5.4277Zm4.1201-1.0127c.0137-.8872-.3633-2.2788-1.9424-2.2788-1.4365,0-2.0488,1.2988-2.1611,2.2788h4.1035Z" style="fill:#010101;"/><path d="m168.271,135.8179v2.2285h2.0234v1.0664h-2.0234v4.1719c0,.9644.2773,1.5093,1.0645,1.5093.3652,0,.6309-.0449.8164-.1021l.0645,1.0693c-.2734.1079-.7109.1938-1.2578.1938-.6475,0-1.1846-.2134-1.5195-.5957-.3887-.4272-.5469-1.1099-.5469-2.0195v-4.2271h-1.1992v-1.0664h1.1992v-1.8652l1.3789-.3633Z" style="fill:#010101;"/><path d="m172.5698,142.1709c.0273,1.9028,1.2354,2.6875,2.6484,2.6875,1.0078,0,1.624-.1807,2.1445-.3965l.2461,1c-.4922.2251-1.3525.4932-2.582.4932-2.3789,0-3.8096-1.5845-3.8096-3.9067,0-2.3462,1.3828-4.1782,3.6426-4.1782,2.5254,0,3.1865,2.2158,3.1865,3.6406,0,.2959-.0176.5073-.0488.6602h-5.4277Zm4.1201-1.0127c.0137-.8872-.3633-2.2788-1.9424-2.2788-1.4365,0-2.0488,1.2988-2.1611,2.2788h4.1035Z" style="fill:#010101;"/><path d="m185.3169,145.5068c-.3701.1812-1.1797.4482-2.2207.4482-2.334,0-3.8633-1.5884-3.8633-3.9551,0-2.3862,1.6279-4.1274,4.1592-4.1274.8301,0,1.5771.2104,1.957.4126l-.3135,1.0811c-.3447-.1836-.8711-.3726-1.6455-.3726-1.7666,0-2.7344,1.3242-2.7314,2.9316,0,1.7939,1.1533,2.897,2.6973,2.897.7881,0,1.3252-.1997,1.7227-.3721l.2383,1.0566Z" style="fill:#010101;"/><path d="m188.8618,135.8179v2.2285h2.0225v1.0664h-2.0225v4.1719c0,.9644.2773,1.5093,1.0645,1.5093.3652,0,.6309-.0449.8164-.1021l.0645,1.0693c-.2734.1079-.7109.1938-1.2578.1938-.6475,0-1.1846-.2134-1.5195-.5957-.3887-.4272-.5469-1.1099-.5469-2.0195v-4.2271h-1.1992v-1.0664h1.1992v-1.8652l1.3789-.3633Z" style="fill:#010101;"/><path d="m193.1606,142.1709c.0273,1.9028,1.2354,2.6875,2.6484,2.6875,1.0078,0,1.624-.1807,2.1445-.3965l.2471,1c-.4932.2251-1.3535.4932-2.583.4932-2.3789,0-3.8096-1.5845-3.8096-3.9067,0-2.3462,1.3828-4.1782,3.6426-4.1782,2.5254,0,3.1865,2.2158,3.1865,3.6406,0,.2959-.0176.5073-.0488.6602h-5.4277Zm4.1201-1.0127c.0137-.8872-.3633-2.2788-1.9414-2.2788-1.4375,0-2.0498,1.2988-2.1621,2.2788h4.1035Z" style="fill:#010101;"/><path d="m207.0698,134.4224v9.3682c0,.688.0264,1.4624.0645,1.9966h-1.252l-.0713-1.3384h-.0371c-.4307.8647-1.3623,1.5146-2.626,1.5146-1.876,0-3.3232-1.5859-3.3232-3.9331-.0117-2.5874,1.5938-4.1602,3.4785-4.1602,1.1885,0,1.9893.5571,2.3359,1.1743h.0312v-4.6221h1.3994Zm-1.3994,6.7734c0-.1831-.0166-.417-.0586-.6016-.2188-.8882-.9785-1.6201-2.0391-1.6201-1.458,0-2.3291,1.2788-2.3291,2.9795,0,1.5723.7822,2.8779,2.3008,2.8779.9424,0,1.7979-.6362,2.0566-1.6904.0508-.1851.0693-.3833.0693-.6035v-1.3418Z" style="fill:#010101;"/></g><g style="isolation:isolate;"><path d="m30.9365,79.2676v10.7886h-1.4004v-10.7886h1.4004Z" style="fill:#010101;"/><path d="m33.0879,88.623c.4238.2646,1.165.5513,1.8662.5513,1.0273,0,1.5039-.5054,1.5039-1.1528,0-.6772-.4092-1.0317-1.4385-1.4175-1.3984-.5063-2.0605-1.2676-2.0576-2.1948,0-1.2471,1.0137-2.27,2.6787-2.27.7871,0,1.4658.2134,1.8955.4761l-.3496,1.0234c-.2979-.1865-.8652-.4556-1.5879-.4556-.8311,0-1.2822.479-1.2822,1.0625,0,.6406.4551.9268,1.4697,1.3203,1.334.4971,2.0273,1.1699,2.0312,2.3257,0,1.3721-1.0664,2.3325-2.8955,2.3325-.8477,0-1.6309-.2192-2.1758-.5396l.3418-1.0615Z" style="fill:#010101;"/><path d="m46.6299,86.1113c0,2.8667-1.9893,4.1211-3.8496,4.1211-2.0996,0-3.7217-1.5303-3.7217-3.9878,0-2.5908,1.7031-4.1055,3.8447-4.1055,2.2256,0,3.7266,1.6143,3.7266,3.9722Zm-6.1377.0898c0,1.6982.9727,2.9761,2.3457,2.9761,1.3506,0,2.3594-1.2612,2.3594-3.0181,0-1.3096-.6602-2.9653-2.333-2.9653-1.6533,0-2.3721,1.5396-2.3721,3.0073Z" style="fill:#010101;"/><path d="m53.9434,89.7759c-.3701.1812-1.1797.4482-2.2207.4482-2.334,0-3.8633-1.5884-3.8633-3.9551,0-2.3862,1.6279-4.1274,4.1592-4.1274.8301,0,1.5771.2104,1.957.4126l-.3135,1.0811c-.3447-.1836-.8711-.3726-1.6455-.3726-1.7666,0-2.7344,1.3242-2.7314,2.9316,0,1.7939,1.1533,2.897,2.6973,2.897.7881,0,1.3252-.1997,1.7227-.3721l.2383,1.0566Z" style="fill:#010101;"/><path d="m56.3877,82.3154l1.6914,4.5752c.1816.5117.3711,1.1187.498,1.5796h.0391c.1387-.4556.3096-1.0488.4941-1.6108l1.5312-4.5439h1.4941l-2.1182,5.5137c-1.0029,2.6621-1.6924,4.0166-2.6514,4.8555-.6963.6021-1.3828.8413-1.7266.9038l-.3496-1.1768c.3535-.1113.8115-.3315,1.2334-.688.3789-.3071.8506-.8525,1.1777-1.5679.0713-.1484.1084-.2524.1084-.3394,0-.0791-.0225-.1909-.0977-.3613l-2.8555-7.1396h1.5312Z" style="fill:#010101;"/><path d="m67.6436,90.0562l-.124-.9775h-.042c-.4248.604-1.2598,1.1538-2.3682,1.1538-1.5645,0-2.3643-1.1104-2.3643-2.2212,0-1.875,1.6611-2.9053,4.6514-2.8838v-.1646c0-.6289-.1768-1.7944-1.7617-1.7856-.7207,0-1.4736.2148-2.0166.5767l-.3203-.936c.6416-.4136,1.5781-.6787,2.5557-.6787,2.3662,0,2.9434,1.6177,2.9434,3.1685v2.896c0,.6611.0293,1.3208.1162,1.8525h-1.2695Zm-.2188-3.9526c-1.5234-.0327-3.2676.2412-3.2676,1.7383,0,.9238.6074,1.3477,1.3145,1.3477,1.0186,0,1.6621-.6416,1.8857-1.2964.0488-.1494.0674-.3086.0674-.4434v-1.3462Z" style="fill:#010101;"/><path d="m71.0635,84.4062c0-.8081-.0264-1.4492-.0645-2.0908h1.2441l.0781,1.2729h.0391c.3809-.7271,1.2812-1.4492,2.5596-1.4492,1.0635,0,2.7285.6396,2.7285,3.2993v4.6177h-1.4014v-4.4634c0-1.251-.4717-2.2993-1.7891-2.2993-.9238,0-1.6445.6567-1.8965,1.4448-.0586.1719-.0977.4214-.0977.6528v4.665h-1.4004v-5.6499Z" style="fill:#010101;"/><path d="m81.5166,80.127c.001.479-.3359.875-.8955.875-.5098,0-.8516-.396-.8496-.875-.002-.4834.3594-.8765.875-.8765.5254,0,.8662.3848.8701.8765Zm-1.5732,9.9292v-7.7407h1.4004v7.7407h-1.4004Z" style="fill:#010101;"/><path d="m90.3682,78.6914v9.3682c0,.688.0264,1.4624.0645,1.9966h-1.252l-.0713-1.3384h-.0371c-.4307.8647-1.3623,1.5146-2.626,1.5146-1.876,0-3.3232-1.5859-3.3232-3.9331-.0117-2.5874,1.5938-4.1602,3.4785-4.1602,1.1885,0,1.9893.5571,2.3359,1.1743h.0312v-4.6221h1.3994Zm-1.3994,6.7734c0-.1831-.0166-.417-.0586-.6016-.2188-.8882-.9785-1.6201-2.0391-1.6201-1.458,0-2.3291,1.2788-2.3291,2.9795,0,1.5723.7822,2.8779,2.3008,2.8779.9424,0,1.7979-.6362,2.0566-1.6904.0508-.1851.0693-.3833.0693-.6035v-1.3418Z" style="fill:#010101;"/><path d="m93.5,86.4399c.0273,1.9028,1.2354,2.6875,2.6484,2.6875,1.0078,0,1.624-.1807,2.1445-.3965l.2471,1c-.4932.2251-1.3535.4932-2.583.4932-2.3789,0-3.8096-1.5845-3.8096-3.9067,0-2.3462,1.3828-4.1782,3.6426-4.1782,2.5254,0,3.1865,2.2158,3.1865,3.6406,0,.2959-.0176.5073-.0488.6602h-5.4277Zm4.1201-1.0127c.0137-.8872-.3633-2.2788-1.9414-2.2788-1.4375,0-2.0498,1.2988-2.1621,2.2788h4.1035Z" style="fill:#010101;"/><path d="m105.4238,78.6914h1.4004v4.8325h.0322c.2334-.3955.583-.75,1.0127-.9941.4102-.2432.9072-.3906,1.4414-.3906,1.0439,0,2.6982.6362,2.6982,3.3071v4.6099h-1.4014v-4.4561c0-1.2495-.4717-2.2983-1.7891-2.2983-.9209,0-1.6299.6436-1.8994,1.4048-.0732.1968-.0947.4106-.0947.6709v4.6787h-1.4004v-11.3647Z" style="fill:#010101;"/><path d="m114.6045,82.3154l1.6914,4.5752c.1816.5117.3711,1.1187.498,1.5796h.0391c.1387-.4556.3096-1.0488.4941-1.6108l1.5312-4.5439h1.4941l-2.1182,5.5137c-1.0029,2.6621-1.6924,4.0166-2.6514,4.8555-.6963.6021-1.3828.8413-1.7266.9038l-.3496-1.1768c.3535-.1113.8115-.3315,1.2334-.688.3789-.3071.8506-.8525,1.1777-1.5679.0713-.1484.1084-.2524.1084-.3394,0-.0791-.0225-.1909-.0977-.3613l-2.8555-7.1396h1.5312Z" style="fill:#010101;"/><path d="m128.1523,78.6914v9.3682c0,.688.0264,1.4624.0645,1.9966h-1.252l-.0713-1.3384h-.0371c-.4307.8647-1.3623,1.5146-2.626,1.5146-1.876,0-3.3232-1.5859-3.3232-3.9331-.0117-2.5874,1.5938-4.1602,3.4785-4.1602,1.1885,0,1.9893.5571,2.3359,1.1743h.0312v-4.6221h1.3994Zm-1.3994,6.7734c0-.1831-.0166-.417-.0586-.6016-.2188-.8882-.9785-1.6201-2.0391-1.6201-1.458,0-2.3291,1.2788-2.3291,2.9795,0,1.5723.7822,2.8779,2.3008,2.8779.9424,0,1.7979-.6362,2.0566-1.6904.0508-.1851.0693-.3833.0693-.6035v-1.3418Z" style="fill:#010101;"/><path d="m130.4932,84.7261c0-.9141-.0225-1.6929-.0635-2.4106h1.2334l.0537,1.5186h.0498c.3613-1.0391,1.2158-1.6948,2.1562-1.6948.1523,0,.2627.0098.3916.0396v1.3242c-.1436-.0298-.2861-.041-.4795-.041-.9922,0-1.6934.748-1.8838,1.8013-.0371.1978-.0576.4282-.0576.6572v4.1357h-1.4004v-5.3301Z" style="fill:#010101;"/><path d="m139.9404,90.0562l-.124-.9775h-.042c-.4248.604-1.2598,1.1538-2.3682,1.1538-1.5645,0-2.3643-1.1104-2.3643-2.2212,0-1.875,1.6611-2.9053,4.6514-2.8838v-.1646c0-.6289-.1768-1.7944-1.7617-1.7856-.7207,0-1.4736.2148-2.0166.5767l-.3203-.936c.6416-.4136,1.5781-.6787,2.5557-.6787,2.3662,0,2.9434,1.6177,2.9434,3.1685v2.896c0,.6611.0293,1.3208.1162,1.8525h-1.2695Zm-.2188-3.9526c-1.5234-.0327-3.2676.2412-3.2676,1.7383,0,.9238.6074,1.3477,1.3145,1.3477,1.0186,0,1.6621-.6416,1.8857-1.2964.0488-.1494.0674-.3086.0674-.4434v-1.3462Z" style="fill:#010101;"/><path d="m144.9863,80.0869v2.2285h2.0225v1.0664h-2.0225v4.1719c0,.9644.2773,1.5093,1.0645,1.5093.3652,0,.6309-.0449.8164-.1021l.0645,1.0693c-.2734.1079-.7109.1938-1.2578.1938-.6475,0-1.1846-.2134-1.5195-.5957-.3887-.4272-.5469-1.1099-.5469-2.0195v-4.2271h-1.1992v-1.0664h1.1992v-1.8652l1.3789-.3633Z" style="fill:#010101;"/><path d="m152.8848,90.0562l-.124-.9775h-.042c-.4248.604-1.2598,1.1538-2.3682,1.1538-1.5645,0-2.3643-1.1104-2.3643-2.2212,0-1.875,1.6611-2.9053,4.6514-2.8838v-.1646c0-.6289-.1768-1.7944-1.7617-1.7856-.7207,0-1.4736.2148-2.0166.5767l-.3203-.936c.6416-.4136,1.5781-.6787,2.5557-.6787,2.3662,0,2.9434,1.6177,2.9434,3.1685v2.896c0,.6611.0293,1.3208.1162,1.8525h-1.2695Zm-.2188-3.9526c-1.5234-.0327-3.2676.2412-3.2676,1.7383,0,.9238.6074,1.3477,1.3145,1.3477,1.0186,0,1.6621-.6416,1.8857-1.2964.0488-.1494.0674-.3086.0674-.4434v-1.3462Z" style="fill:#010101;"/><path d="m156.1055,88.623c.4238.2646,1.165.5513,1.8662.5513,1.0273,0,1.5039-.5054,1.5039-1.1528,0-.6772-.4092-1.0317-1.4385-1.4175-1.3984-.5063-2.0605-1.2676-2.0576-2.1948,0-1.2471,1.0137-2.27,2.6787-2.27.7871,0,1.4658.2134,1.8955.4761l-.3496,1.0234c-.2979-.1865-.8652-.4556-1.5879-.4556-.8311,0-1.2822.479-1.2822,1.0625,0,.6406.4551.9268,1.4697,1.3203,1.334.4971,2.0273,1.1699,2.0312,2.3257,0,1.3721-1.0664,2.3325-2.8955,2.3325-.8477,0-1.6309-.2192-2.1758-.5396l.3418-1.0615Z" style="fill:#010101;"/><path d="m163.4287,86.4399c.0273,1.9028,1.2354,2.6875,2.6484,2.6875,1.0078,0,1.624-.1807,2.1445-.3965l.2461,1c-.4922.2251-1.3525.4932-2.582.4932-2.3789,0-3.8096-1.5845-3.8096-3.9067,0-2.3462,1.3828-4.1782,3.6426-4.1782,2.5254,0,3.1865,2.2158,3.1865,3.6406,0,.2959-.0176.5073-.0488.6602h-5.4277Zm4.1201-1.0127c.0137-.8872-.3633-2.2788-1.9424-2.2788-1.4365,0-2.0488,1.2988-2.1611,2.2788h4.1035Z" style="fill:#010101;"/></g><g style="isolation:isolate;"><path d="m11.6123,15.3193c-.8271.2964-2.4189.7124-4.123.7124-2.1602,0-3.8086-.543-5.0176-1.7065-1.1426-1.0898-1.8027-2.7715-1.7969-4.7026.0107-4.0615,2.8994-6.6514,7.1357-6.6514,1.5752,0,2.8027.3188,3.3994.6021l-.5195,1.8828c-.6973-.3081-1.5547-.5454-2.9111-.5454-2.7246,0-4.6504,1.6162-4.6504,4.5913,0,2.9141,1.793,4.6304,4.4453,4.6304.8467,0,1.4688-.1104,1.7676-.2544v-3.1963h-2.2549v-1.8374h4.5254v6.4751Z" style="fill:#010101;"/><path d="m15.6748,11.9263c.0615,1.6758,1.3594,2.4082,2.8555,2.4082,1.0762,0,1.8457-.1685,2.5527-.4282l.3467,1.6099c-.792.3359-1.8906.5869-3.2324.5869-3.0029,0-4.7617-1.8555-4.7617-4.6895,0-2.5522,1.5488-4.9678,4.5234-4.9678,3.0059,0,3.9844,2.4717,3.9844,4.498,0,.4351-.0381.7827-.082.9824h-6.1865Zm4.0664-1.6304c.0107-.8564-.3613-2.2534-1.9287-2.2534-1.4385,0-2.0381,1.3071-2.1416,2.2534h4.0703Z" style="fill:#010101;"/><path d="m23.832,9.4053c0-1.0684-.0332-1.9492-.0752-2.7505h2.043l.1152,1.3887h.0537c.4102-.7178,1.4111-1.5977,2.9473-1.5977,1.6133,0,3.2881,1.0386,3.2881,3.9639v5.4937h-2.3408v-5.2183c0-1.3271-.4863-2.3379-1.7637-2.3379-.9316,0-1.5752.6572-1.8193,1.3721-.0723.1914-.1074.4761-.1074.7417v5.4424h-2.3408v-6.498Z" style="fill:#010101;"/><path d="m36.3467,11.9263c.0615,1.6758,1.3594,2.4082,2.8555,2.4082,1.0762,0,1.8457-.1685,2.5527-.4282l.3467,1.6099c-.792.3359-1.8906.5869-3.2324.5869-3.0029,0-4.7617-1.8555-4.7617-4.6895,0-2.5522,1.5488-4.9678,4.5234-4.9678,3.0059,0,3.9844,2.4717,3.9844,4.498,0,.4351-.0381.7827-.082.9824h-6.1865Zm4.0664-1.6304c.0107-.8564-.3613-2.2534-1.9287-2.2534-1.4385,0-2.0381,1.3071-2.1416,2.2534h4.0703Z" style="fill:#010101;"/><path d="m53.6387,15.9033l-.1592-1.0303h-.0566c-.5605.73-1.5283,1.2393-2.7256,1.2393-1.876,0-2.916-1.3403-2.916-2.751,0-2.3335,2.0791-3.5151,5.4863-3.5015v-.1528c0-.6079-.2412-1.6187-1.8779-1.6128-.9062,0-1.8564.2925-2.4863.6899l-.4639-1.5176c.6992-.4243,1.8965-.8208,3.3525-.8208,2.9658,0,3.8125,1.8706,3.8125,3.8994v3.3301c0,.8408.042,1.6567.1445,2.228h-2.1104Zm-.3096-4.5293c-1.6494-.022-3.2285.3257-3.2285,1.7339,0,.9058.5947,1.3325,1.334,1.3325.9326,0,1.6055-.6025,1.8301-1.2798.0498-.1626.0645-.3462.0645-.5083v-1.2783Z" style="fill:#010101;"/><path d="m58.0869,9.6284c0-1.2388-.0254-2.1494-.0762-2.9736h2.0254l.0869,1.7578h.0654c.4561-1.3027,1.5342-1.9668,2.5322-1.9668.2275,0,.3613.0088.5488.0508v2.2026c-.2002-.042-.4043-.0664-.6865-.0664-1.1133,0-1.8867.709-2.0957,1.769-.0391.2065-.0596.4536-.0596.7051v4.7964h-2.3408v-6.2749Z" style="fill:#010101;"/><path d="m64.8691,9.6284c0-1.2388-.0254-2.1494-.0762-2.9736h2.0254l.0869,1.7578h.0654c.4561-1.3027,1.5342-1.9668,2.5322-1.9668.2275,0,.3613.0088.5488.0508v2.2026c-.2002-.042-.4043-.0664-.6865-.0664-1.1133,0-1.8867.709-2.0957,1.769-.04.2065-.0596.4536-.0596.7051v4.7964h-2.3408v-6.2749Z" style="fill:#010101;"/><path d="m80.25,11.1885c0,3.3994-2.3857,4.9238-4.751,4.9238-2.6084,0-4.6279-1.8008-4.6279-4.7646,0-3.0337,1.998-4.9019,4.7852-4.9019,2.7529,0,4.5938,1.939,4.5938,4.7427Zm-6.9746.1001c0,1.7798.8877,3.1245,2.2988,3.1245,1.3408,0,2.2725-1.2939,2.2725-3.1553,0-1.4531-.6436-3.1128-2.2568-3.1128-1.6416,0-2.3145,1.6021-2.3145,3.1436Z" style="fill:#010101;"/><path d="m83.4209,6.6548l.9658,4.1943c.2217.9878.4287,1.9878.5977,2.9971h.0449c.1885-.9966.4795-2.0293.7441-2.9795l1.2129-4.2119h1.8926l1.1543,4.106c.2861,1.0737.5439,2.0825.7393,3.0854h.042c.1465-.998.3613-2.0122.6162-3.0874l1.0254-4.104h2.2939l-2.8984,9.2485h-2.1729l-1.1084-3.7661c-.2812-.9668-.4912-1.8374-.6982-2.96h-.0381c-.1982,1.1406-.4316,2.0449-.7061,2.958l-1.1768,3.7681h-2.1787l-2.7373-9.2485h2.3857Z" style="fill:#010101;"/><path d="m106.9775,15.6255c-.4844.229-1.4502.4775-2.6104.4775-2.8994,0-4.7686-1.8604-4.7686-4.73,0-2.7695,1.8916-4.9219,5.1455-4.9219.8633,0,1.7236.1885,2.2578.4219l-.4141,1.7588c-.377-.1836-.9365-.3618-1.7695-.3618-1.7832,0-2.8398,1.3037-2.832,2.999,0,1.897,1.2461,2.9844,2.8398,2.9844.8008,0,1.3799-.1733,1.8359-.3647l.3154,1.7368Z" style="fill:#010101;"/><path d="m117.3379,11.1885c0,3.3994-2.3857,4.9238-4.751,4.9238-2.6084,0-4.6279-1.8008-4.6279-4.7646,0-3.0337,1.998-4.9019,4.7852-4.9019,2.7529,0,4.5938,1.939,4.5938,4.7427Zm-6.9746.1001c0,1.7798.8877,3.1245,2.2988,3.1245,1.3408,0,2.2725-1.2939,2.2725-3.1553,0-1.4531-.6436-3.1128-2.2568-3.1128-1.6416,0-2.3145,1.6021-2.3145,3.1436Z" style="fill:#010101;"/><path d="m119.2676,2.4155h2.3408v13.4878h-2.3408V2.4155Z" style="fill:#010101;"/><path d="m132.9365,11.1885c0,3.3994-2.3857,4.9238-4.751,4.9238-2.6084,0-4.6279-1.8008-4.6279-4.7646,0-3.0337,1.998-4.9019,4.7852-4.9019,2.7529,0,4.5938,1.939,4.5938,4.7427Zm-6.9746.1001c0,1.7798.8877,3.1245,2.2988,3.1245,1.3408,0,2.2725-1.2939,2.2725-3.1553,0-1.4531-.6436-3.1128-2.2568-3.1128-1.6416,0-2.3145,1.6021-2.3145,3.1436Z" style="fill:#010101;"/><path d="m134.8643,9.6284c0-1.2388-.0254-2.1494-.0762-2.9736h2.0254l.0869,1.7578h.0654c.4561-1.3027,1.5342-1.9668,2.5322-1.9668.2275,0,.3613.0088.5488.0508v2.2026c-.2002-.042-.4043-.0664-.6865-.0664-1.1133,0-1.8867.709-2.0957,1.769-.0391.2065-.0596.4536-.0596.7051v4.7964h-2.3408v-6.2749Z" style="fill:#010101;"/><path d="m147.8984,10.7109h.0381c.2197-.3613.4873-.7544.7295-1.0859l2.2549-2.9702h2.8096l-3.4287,3.7754,3.9121,5.4731h-2.8691l-2.6592-4.0879-.7871.938v3.1499h-2.3379V2.4155h2.3379v8.2954Z" style="fill:#010101;"/><path d="m156.7471,11.9263c.0615,1.6758,1.3594,2.4082,2.8555,2.4082,1.0762,0,1.8457-.1685,2.5527-.4282l.3467,1.6099c-.792.3359-1.8906.5869-3.2324.5869-3.0029,0-4.7617-1.8555-4.7617-4.6895,0-2.5522,1.5488-4.9678,4.5234-4.9678,3.0059,0,3.9844,2.4717,3.9844,4.498,0,.4351-.0381.7827-.082.9824h-6.1865Zm4.0664-1.6304c.0107-.8564-.3613-2.2534-1.9287-2.2534-1.4385,0-2.0381,1.3071-2.1416,2.2534h4.0703Z" style="fill:#010101;"/><path d="m166.3076,6.6548l1.668,4.958c.1836.5728.3838,1.2793.5205,1.793h.0547c.1445-.519.3174-1.2153.4902-1.8125l1.4482-4.9385h2.4941l-2.3164,6.311c-1.2695,3.4526-2.1279,4.9863-3.2168,5.9463-.9189.8013-1.8711,1.1055-2.4531,1.1821l-.5273-1.9688c.3916-.0981.8818-.3081,1.3506-.6377.4453-.2925.9609-.8389,1.2842-1.4751.0918-.1597.1475-.2959.1475-.4106,0-.1016-.0264-.2378-.123-.4556l-3.3984-8.4917h2.5771Z" style="fill:#010101;"/></g><g style="isolation:isolate;"><path d="m38.7632,113.9614c0,3.7017-2.2559,5.6787-5.0059,5.6787-2.8613,0-4.8496-2.2153-4.8496-5.4756,0-3.4185,2.1162-5.665,4.9961-5.665,2.9463,0,4.8594,2.2568,4.8594,5.4619Zm-8.3818.1704c0,2.3086,1.2539,4.3745,3.4512,4.3745,2.2139,0,3.457-2.0322,3.457-4.4834,0-2.1479-1.1211-4.3901-3.4395-4.3901-2.3154,0-3.4688,2.1396-3.4688,4.499Z" style="fill:#010101;"/><path d="m40.5513,113.814c0-.8081-.0264-1.4492-.0645-2.0908h1.2441l.0781,1.2729h.0391c.3809-.7271,1.2812-1.4492,2.5596-1.4492,1.0635,0,2.7285.6396,2.7285,3.2993v4.6177h-1.4014v-4.4634c0-1.251-.4717-2.2993-1.7891-2.2993-.9238,0-1.6445.6567-1.8975,1.4448-.0576.1719-.0967.4214-.0967.6528v4.665h-1.4004v-5.6499Z" style="fill:#010101;"/><path d="m50.2192,115.8477c.0273,1.9028,1.2354,2.6875,2.6484,2.6875,1.0078,0,1.624-.1807,2.1445-.3965l.2471,1c-.4932.2251-1.3535.4932-2.583.4932-2.3789,0-3.8096-1.5845-3.8096-3.9067,0-2.3462,1.3828-4.1782,3.6426-4.1782,2.5254,0,3.1865,2.2158,3.1865,3.6406,0,.2959-.0176.5073-.0488.6602h-5.4277Zm4.1201-1.0127c.0137-.8872-.3633-2.2788-1.9414-2.2788-1.4375,0-2.0498,1.2988-2.1621,2.2788h4.1035Z" style="fill:#010101;"/><path d="m67.52,108.0991v9.3682c0,.688.0264,1.4624.0645,1.9966h-1.252l-.0713-1.3384h-.0371c-.4307.8647-1.3623,1.5146-2.626,1.5146-1.876,0-3.3232-1.5859-3.3232-3.9331-.0117-2.5874,1.5938-4.1602,3.4785-4.1602,1.1885,0,1.9893.5571,2.3359,1.1743h.0312v-4.6221h1.3994Zm-1.3994,6.7734c0-.1831-.0166-.417-.0586-.6016-.2188-.8882-.9785-1.6201-2.0391-1.6201-1.458,0-2.3291,1.2788-2.3291,2.9795,0,1.5723.7822,2.8779,2.3008,2.8779.9424,0,1.7979-.6362,2.0566-1.6904.0508-.1851.0693-.3833.0693-.6035v-1.3418Z" style="fill:#010101;"/><path d="m76.8696,115.519c0,2.8667-1.9893,4.1211-3.8496,4.1211-2.0996,0-3.7217-1.5303-3.7217-3.9878,0-2.5908,1.7031-4.1055,3.8447-4.1055,2.2256,0,3.7266,1.6143,3.7266,3.9722Zm-6.1377.0898c0,1.6982.9727,2.9761,2.3457,2.9761,1.3506,0,2.3594-1.2612,2.3594-3.0181,0-1.3096-.6602-2.9653-2.333-2.9653-1.6533,0-2.3721,1.5396-2.3721,3.0073Z" style="fill:#010101;"/><path d="m78.647,113.814c0-.8081-.0264-1.4492-.0645-2.0908h1.2236l.0742,1.2461h.0391c.4316-.7363,1.1533-1.4224,2.4443-1.4224,1.0488,0,1.8496.6387,2.1816,1.5518h.0322c.248-.4404.5527-.7749.873-1.0078.4688-.3521.9736-.5439,1.7031-.5439,1.0342,0,2.5557.666,2.5557,3.3589v4.5581h-1.374v-4.3779c0-1.4995-.5527-2.3872-1.6797-2.3872-.8076,0-1.4268.5869-1.6748,1.2671-.0674.2031-.1152.4556-.1152.7061v4.792h-1.375v-4.6455c0-1.2329-.5449-2.1196-1.6084-2.1196-.877,0-1.5205.7002-1.7549,1.4053-.0693.2065-.1064.4521-.1064.6934v4.6665h-1.374v-5.6499Z" style="fill:#010101;"/><path d="m96.2827,119.4639l-.124-.9775h-.042c-.4248.604-1.2598,1.1538-2.3682,1.1538-1.5645,0-2.3643-1.1104-2.3643-2.2212,0-1.875,1.6611-2.9053,4.6514-2.8838v-.1646c0-.6289-.1768-1.7944-1.7617-1.7856-.7207,0-1.4736.2148-2.0166.5767l-.3203-.936c.6416-.4136,1.5781-.6787,2.5557-.6787,2.3662,0,2.9434,1.6177,2.9434,3.1685v2.896c0,.6611.0293,1.3208.1162,1.8525h-1.2695Zm-.2188-3.9526c-1.5234-.0327-3.2676.2412-3.2676,1.7383,0,.9238.6074,1.3477,1.3145,1.3477,1.0186,0,1.6621-.6416,1.8857-1.2964.0488-.1494.0674-.3086.0674-.4434v-1.3462Z" style="fill:#010101;"/><path d="m101.2759,109.5347c.001.479-.3359.875-.8955.875-.5098,0-.8516-.396-.8496-.875-.002-.4834.3594-.8765.875-.8765.5254,0,.8662.3848.8701.8765Zm-1.5732,9.9292v-7.7407h1.4004v7.7407h-1.4004Z" style="fill:#010101;"/><path d="m103.4468,113.814c0-.8081-.0264-1.4492-.0645-2.0908h1.2441l.0781,1.2729h.0391c.3809-.7271,1.2812-1.4492,2.5596-1.4492,1.0635,0,2.7285.6396,2.7285,3.2993v4.6177h-1.4014v-4.4634c0-1.251-.4717-2.2993-1.7891-2.2993-.9238,0-1.6445.6567-1.8965,1.4448-.0586.1719-.0977.4214-.0977.6528v4.665h-1.4004v-5.6499Z" style="fill:#010101;"/><path d="m122.3989,108.0991v9.3682c0,.688.0264,1.4624.0645,1.9966h-1.252l-.0713-1.3384h-.0371c-.4307.8647-1.3623,1.5146-2.626,1.5146-1.876,0-3.3232-1.5859-3.3232-3.9331-.0117-2.5874,1.5938-4.1602,3.4785-4.1602,1.1885,0,1.9893.5571,2.3359,1.1743h.0312v-4.6221h1.3994Zm-1.3994,6.7734c0-.1831-.0166-.417-.0586-.6016-.2188-.8882-.9785-1.6201-2.0391-1.6201-1.458,0-2.3291,1.2788-2.3291,2.9795,0,1.5723.7822,2.8779,2.3008,2.8779.9424,0,1.7979-.6362,2.0566-1.6904.0508-.1851.0693-.3833.0693-.6035v-1.3418Z" style="fill:#010101;"/><path d="m125.5308,115.8477c.0273,1.9028,1.2354,2.6875,2.6484,2.6875,1.0078,0,1.624-.1807,2.1445-.3965l.2461,1c-.4922.2251-1.3525.4932-2.582.4932-2.3789,0-3.8096-1.5845-3.8096-3.9067,0-2.3462,1.3828-4.1782,3.6426-4.1782,2.5254,0,3.1865,2.2158,3.1865,3.6406,0,.2959-.0176.5073-.0488.6602h-5.4277Zm4.1201-1.0127c.0137-.8872-.3633-2.2788-1.9424-2.2788-1.4365,0-2.0488,1.2988-2.1611,2.2788h4.1035Z" style="fill:#010101;"/><path d="m134.4478,109.4946v2.2285h2.0225v1.0664h-2.0225v4.1719c0,.9644.2773,1.5093,1.0645,1.5093.3652,0,.6309-.0449.8164-.1021l.0645,1.0693c-.2734.1079-.7109.1938-1.2578.1938-.6475,0-1.1846-.2134-1.5195-.5957-.3887-.4272-.5469-1.1099-.5469-2.0195v-4.2271h-1.1992v-1.0664h1.1992v-1.8652l1.3789-.3633Z" style="fill:#010101;"/><path d="m138.7466,115.8477c.0273,1.9028,1.2354,2.6875,2.6484,2.6875,1.0078,0,1.624-.1807,2.1445-.3965l.2471,1c-.4932.2251-1.3535.4932-2.583.4932-2.3789,0-3.8096-1.5845-3.8096-3.9067,0-2.3462,1.3828-4.1782,3.6426-4.1782,2.5254,0,3.1865,2.2158,3.1865,3.6406,0,.2959-.0176.5073-.0488.6602h-5.4277Zm4.1201-1.0127c.0137-.8872-.3633-2.2788-1.9414-2.2788-1.4375,0-2.0498,1.2988-2.1621,2.2788h4.1035Z" style="fill:#010101;"/><path d="m151.4937,119.1836c-.3701.1812-1.1797.4482-2.2207.4482-2.334,0-3.8633-1.5884-3.8633-3.9551,0-2.3862,1.6279-4.1274,4.1592-4.1274.8301,0,1.5771.2104,1.957.4126l-.3135,1.0811c-.3447-.1836-.8711-.3726-1.6455-.3726-1.7666,0-2.7344,1.3242-2.7314,2.9316,0,1.7939,1.1533,2.897,2.6973,2.897.7881,0,1.3252-.1997,1.7227-.3721l.2383,1.0566Z" style="fill:#010101;"/><path d="m155.0396,109.4946v2.2285h2.0225v1.0664h-2.0225v4.1719c0,.9644.2773,1.5093,1.0645,1.5093.3652,0,.6309-.0449.8164-.1021l.0645,1.0693c-.2734.1079-.7109.1938-1.2578.1938-.6475,0-1.1846-.2134-1.5195-.5957-.3887-.4272-.5469-1.1099-.5469-2.0195v-4.2271h-1.1992v-1.0664h1.1992v-1.8652l1.3789-.3633Z" style="fill:#010101;"/><path d="m159.3374,115.8477c.0273,1.9028,1.2354,2.6875,2.6484,2.6875,1.0078,0,1.624-.1807,2.1445-.3965l.2461,1c-.4922.2251-1.3525.4932-2.582.4932-2.3789,0-3.8096-1.5845-3.8096-3.9067,0-2.3462,1.3828-4.1782,3.6426-4.1782,2.5254,0,3.1865,2.2158,3.1865,3.6406,0,.2959-.0176.5073-.0488.6602h-5.4277Zm4.1201-1.0127c.0137-.8872-.3633-2.2788-1.9424-2.2788-1.4365,0-2.0488,1.2988-2.1611,2.2788h4.1035Z" style="fill:#010101;"/><path d="m173.2466,108.0991v9.3682c0,.688.0264,1.4624.0645,1.9966h-1.252l-.0713-1.3384h-.0371c-.4307.8647-1.3623,1.5146-2.626,1.5146-1.876,0-3.3232-1.5859-3.3232-3.9331-.0117-2.5874,1.5938-4.1602,3.4785-4.1602,1.1885,0,1.9893.5571,2.3359,1.1743h.0312v-4.6221h1.3994Zm-1.3994,6.7734c0-.1831-.0166-.417-.0586-.6016-.2188-.8882-.9785-1.6201-2.0391-1.6201-1.458,0-2.3291,1.2788-2.3291,2.9795,0,1.5723.7822,2.8779,2.3008,2.8779.9424,0,1.7979-.6362,2.0566-1.6904.0508-.1851.0693-.3833.0693-.6035v-1.3418Z" style="fill:#010101;"/></g><circle cx="7.708" cy="115.1633" r="5.4837" style="fill:#f9c74f;"/><g style="isolation:isolate;"><path d="m29.5366,174.0972v-10.7886h1.5322l3.4551,5.4526c.7891,1.2656,1.415,2.3994,1.9248,3.5132l.0361-.0171c-.127-1.4399-.1514-2.7554-.1514-4.4268v-4.522h1.3115v10.7886h-1.415l-3.4287-5.4683c-.7432-1.209-1.4688-2.4395-2.0078-3.6123l-.0469.0166c.083,1.3672.1016,2.6675.1016,4.4507v4.6133h-1.3115Z" style="fill:#010101;"/><path d="m46.9985,170.1523c0,2.8667-1.9893,4.1211-3.8496,4.1211-2.0996,0-3.7217-1.5303-3.7217-3.9878,0-2.5908,1.7031-4.1055,3.8447-4.1055,2.2256,0,3.7266,1.6143,3.7266,3.9722Zm-6.1377.0898c0,1.6982.9727,2.9761,2.3457,2.9761,1.3506,0,2.3594-1.2612,2.3594-3.0181,0-1.3096-.6602-2.9653-2.333-2.9653-1.6533,0-2.3721,1.5396-2.3721,3.0073Z" style="fill:#010101;"/><path d="m58.8481,162.7324v9.3682c0,.688.0264,1.4624.0645,1.9966h-1.252l-.0713-1.3384h-.0371c-.4307.8647-1.3623,1.5146-2.626,1.5146-1.876,0-3.3232-1.5859-3.3232-3.9331-.0117-2.5874,1.5938-4.1602,3.4785-4.1602,1.1885,0,1.9893.5571,2.3359,1.1743h.0312v-4.6221h1.3994Zm-1.3994,6.7734c0-.1831-.0166-.417-.0586-.6016-.2188-.8882-.9785-1.6201-2.0391-1.6201-1.458,0-2.3291,1.2788-2.3291,2.9795,0,1.5723.7822,2.8779,2.3008,2.8779.9424,0,1.7979-.6362,2.0566-1.6904.0508-.1851.0693-.3833.0693-.6035v-1.3418Z" style="fill:#010101;"/><path d="m68.1978,170.1523c0,2.8667-1.9893,4.1211-3.8496,4.1211-2.0996,0-3.7217-1.5303-3.7217-3.9878,0-2.5908,1.7031-4.1055,3.8447-4.1055,2.2256,0,3.7266,1.6143,3.7266,3.9722Zm-6.1377.0898c0,1.6982.9727,2.9761,2.3457,2.9761,1.3506,0,2.3594-1.2612,2.3594-3.0181,0-1.3096-.6602-2.9653-2.333-2.9653-1.6533,0-2.3721,1.5396-2.3721,3.0073Z" style="fill:#010101;"/><path d="m69.9751,168.4473c0-.8081-.0264-1.4492-.0645-2.0908h1.2236l.0742,1.2461h.0391c.4316-.7363,1.1533-1.4224,2.4443-1.4224,1.0488,0,1.8496.6387,2.1816,1.5518h.0322c.248-.4404.5527-.7749.873-1.0078.4688-.3521.9736-.5439,1.7031-.5439,1.0342,0,2.5557.666,2.5557,3.3589v4.5581h-1.374v-4.3779c0-1.4995-.5527-2.3872-1.6797-2.3872-.8076,0-1.4268.5869-1.6748,1.2671-.0674.2031-.1152.4556-.1152.7061v4.792h-1.375v-4.6455c0-1.2329-.5449-2.1196-1.6084-2.1196-.877,0-1.5205.7002-1.7549,1.4053-.0693.2065-.1064.4521-.1064.6934v4.6665h-1.374v-5.6499Z" style="fill:#010101;"/><path d="m87.6108,174.0972l-.124-.9775h-.042c-.4248.604-1.2598,1.1538-2.3682,1.1538-1.5645,0-2.3643-1.1104-2.3643-2.2212,0-1.875,1.6611-2.9053,4.6514-2.8838v-.1646c0-.6289-.1768-1.7944-1.7617-1.7856-.7207,0-1.4736.2148-2.0166.5767l-.3203-.936c.6416-.4136,1.5781-.6787,2.5557-.6787,2.3662,0,2.9434,1.6177,2.9434,3.1685v2.896c0,.6611.0293,1.3208.1162,1.8525h-1.2695Zm-.2188-3.9526c-1.5234-.0327-3.2676.2412-3.2676,1.7383,0,.9238.6074,1.3477,1.3145,1.3477,1.0186,0,1.6621-.6416,1.8857-1.2964.0488-.1494.0674-.3086.0674-.4434v-1.3462Z" style="fill:#010101;"/><path d="m92.604,164.168c.001.479-.3359.875-.8955.875-.5098,0-.8516-.396-.8496-.875-.002-.4834.3594-.8765.875-.8765.5254,0,.8662.3848.8701.8765Zm-1.5732,9.9292v-7.7407h1.4004v7.7407h-1.4004Z" style="fill:#010101;"/><path d="m94.7749,168.4473c0-.8081-.0264-1.4492-.0645-2.0908h1.2441l.0781,1.2729h.0391c.3809-.7271,1.2812-1.4492,2.5596-1.4492,1.0635,0,2.7285.6396,2.7285,3.2993v4.6177h-1.4014v-4.4634c0-1.251-.4717-2.2993-1.7891-2.2993-.9238,0-1.6445.6567-1.8965,1.4448-.0586.1719-.0977.4214-.0977.6528v4.665h-1.4004v-5.6499Z" style="fill:#010101;"/><path d="m103.4556,172.6641c.4238.2646,1.165.5513,1.8662.5513,1.0273,0,1.5039-.5054,1.5039-1.1528,0-.6772-.4092-1.0317-1.4385-1.4175-1.3984-.5063-2.0605-1.2676-2.0576-2.1948,0-1.2471,1.0137-2.27,2.6787-2.27.7871,0,1.4658.2134,1.8955.4761l-.3496,1.0234c-.2979-.1865-.8652-.4556-1.5879-.4556-.8311,0-1.2822.479-1.2822,1.0625,0,.6406.4551.9268,1.4697,1.3203,1.334.4971,2.0273,1.1699,2.0312,2.3257,0,1.3721-1.0664,2.3325-2.8955,2.3325-.8477,0-1.6309-.2192-2.1758-.5396l.3418-1.0615Z" style="fill:#010101;"/></g><circle cx="7.708" cy="168.12" r="5.4837" style="fill:#577591;"/><g style="isolation:isolate;"><path d="m340.354,12.2842l-1.0918,3.6191h-2.4189l4.1094-12.8042h2.9785l4.1602,12.8042h-2.5107l-1.1592-3.6191h-4.0674Zm3.6816-1.7681l-1.0098-3.1548c-.2451-.7935-.457-1.6641-.6504-2.4072h-.042c-.1855.751-.3818,1.6377-.6084,2.3989l-.9883,3.1631h3.2988Z" style="fill:#010101;"/><path d="m349.6968,9.4053c0-1.0684-.0332-1.9492-.0752-2.7505h2.043l.1152,1.3887h.0537c.4102-.7178,1.4111-1.5977,2.9473-1.5977,1.6133,0,3.2881,1.0386,3.2881,3.9639v5.4937h-2.3408v-5.2183c0-1.3271-.4863-2.3379-1.7637-2.3379-.9316,0-1.5752.6572-1.8193,1.3721-.0723.1914-.1074.4761-.1074.7417v5.4424h-2.3408v-6.498Z" style="fill:#010101;"/><path d="m360.564,9.4053c0-1.0684-.0332-1.9492-.0752-2.7505h2.043l.1152,1.3887h.0537c.4102-.7178,1.4111-1.5977,2.9473-1.5977,1.6133,0,3.2881,1.0386,3.2881,3.9639v5.4937h-2.3408v-5.2183c0-1.3271-.4863-2.3379-1.7637-2.3379-.9316,0-1.5752.6572-1.8193,1.3721-.0723.1914-.1074.4761-.1074.7417v5.4424h-2.3408v-6.498Z" style="fill:#010101;"/><path d="m380.2183,11.1885c0,3.3994-2.3857,4.9238-4.751,4.9238-2.6084,0-4.6279-1.8008-4.6279-4.7646,0-3.0337,1.998-4.9019,4.7852-4.9019,2.7529,0,4.5938,1.939,4.5938,4.7427Zm-6.9746.1001c0,1.7798.8877,3.1245,2.2988,3.1245,1.3408,0,2.2725-1.2939,2.2725-3.1553,0-1.4531-.6436-3.1128-2.2568-3.1128-1.6416,0-2.3145,1.6021-2.3145,3.1436Z" style="fill:#010101;"/><path d="m384.8237,4.0063v2.6484h2.2246v1.7422h-2.2246v4.0815c0,1.1313.3018,1.707,1.1963,1.707.3994,0,.6992-.0459.9082-.1021l.0469,1.7793c-.3516.1313-.9639.2402-1.7021.2402-.8594,0-1.5752-.293-2.0098-.7622-.502-.5312-.7314-1.3823-.7314-2.5942v-4.3496h-1.3193v-1.7422h1.3193v-2.0947l2.292-.5537Z" style="fill:#010101;"/><path d="m394.019,15.9033l-.1592-1.0303h-.0566c-.5605.73-1.5283,1.2393-2.7256,1.2393-1.876,0-2.916-1.3403-2.916-2.751,0-2.3335,2.0791-3.5151,5.4863-3.5015v-.1528c0-.6079-.2412-1.6187-1.8779-1.6128-.9062,0-1.8564.2925-2.4863.6899l-.4639-1.5176c.6992-.4243,1.8965-.8208,3.3525-.8208,2.9658,0,3.8125,1.8706,3.8125,3.8994v3.3301c0,.8408.042,1.6567.1445,2.228h-2.1104Zm-.3096-4.5293c-1.6494-.022-3.2285.3257-3.2285,1.7339,0,.9058.5947,1.3325,1.334,1.3325.9326,0,1.6055-.6025,1.8301-1.2798.0498-.1626.0645-.3462.0645-.5083v-1.2783Z" style="fill:#010101;"/><path d="m401.0308,4.0063v2.6484h2.2246v1.7422h-2.2246v4.0815c0,1.1313.3018,1.707,1.1963,1.707.3994,0,.6992-.0459.9082-.1021l.0469,1.7793c-.3516.1313-.9639.2402-1.7021.2402-.8594,0-1.5752-.293-2.0098-.7622-.502-.5312-.7314-1.3823-.7314-2.5942v-4.3496h-1.3193v-1.7422h1.3193v-2.0947l2.292-.5537Z" style="fill:#010101;"/><path d="m407.5015,4.0664c.0029.6982-.5049,1.2612-1.333,1.2612-.7754,0-1.2842-.563-1.2812-1.2612-.0029-.7124.5234-1.2642,1.3096-1.2642.7939,0,1.2969.5454,1.3047,1.2642Zm-2.4775,11.8369V6.6548h2.3408v9.2485h-2.3408Z" style="fill:#010101;"/><path d="m418.6743,11.1885c0,3.3994-2.3857,4.9238-4.751,4.9238-2.6084,0-4.6279-1.8008-4.6279-4.7646,0-3.0337,1.998-4.9019,4.7852-4.9019,2.7529,0,4.5938,1.939,4.5938,4.7427Zm-6.9746.1001c0,1.7798.8877,3.1245,2.2988,3.1245,1.3408,0,2.2725-1.2939,2.2725-3.1553,0-1.4531-.6436-3.1128-2.2568-3.1128-1.6416,0-2.3145,1.6021-2.3145,3.1436Z" style="fill:#010101;"/><path d="m420.604,9.4053c0-1.0684-.0332-1.9492-.0762-2.7505h2.0439l.1152,1.3887h.0537c.4102-.7178,1.4111-1.5977,2.9473-1.5977,1.6133,0,3.2881,1.0386,3.2881,3.9639v5.4937h-2.3408v-5.2183c0-1.3271-.4863-2.3379-1.7637-2.3379-.9316,0-1.5752.6572-1.8193,1.3721-.0723.1914-.1074.4761-.1074.7417v5.4424h-2.3408v-6.498Z" style="fill:#010101;"/><path d="m445.7563,15.3193c-.8271.2964-2.4189.7124-4.123.7124-2.1602,0-3.8086-.543-5.0176-1.7065-1.1426-1.0898-1.8027-2.7715-1.7969-4.7026.0107-4.0615,2.8994-6.6514,7.1357-6.6514,1.5752,0,2.8027.3188,3.3994.6021l-.5195,1.8828c-.6973-.3081-1.5547-.5454-2.9111-.5454-2.7246,0-4.6504,1.6162-4.6504,4.5913,0,2.9141,1.793,4.6304,4.4453,4.6304.8467,0,1.4688-.1104,1.7676-.2544v-3.1963h-2.2549v-1.8374h4.5254v6.4751Z" style="fill:#010101;"/><path d="m456.3882,13.1328c0,1.0986.0342,2.0186.0762,2.7705h-2.043l-.1133-1.3979h-.0537c-.3906.6489-1.3047,1.6069-2.9629,1.6069-1.6855,0-3.2197-1.0127-3.2197-4.0342v-5.4233h2.3398v5.0327c0,1.5361.4854,2.52,1.7246,2.52.9365,0,1.5439-.6523,1.7861-1.2495.0781-.2012.126-.4526.126-.7231v-5.5801h2.3398v6.478Z" style="fill:#010101;"/><path d="m461.4028,4.0664c.0029.6982-.5049,1.2612-1.333,1.2612-.7754,0-1.2842-.563-1.2812-1.2612-.0029-.7124.5234-1.2642,1.3096-1.2642.7939,0,1.2969.5454,1.3047,1.2642Zm-2.4775,11.8369V6.6548h2.3408v9.2485h-2.3408Z" style="fill:#010101;"/><path d="m472.3101,2.4155v10.894c0,.9478.0342,1.9663.0762,2.5938h-2.082l-.1045-1.4639h-.042c-.5518,1.0352-1.6689,1.6729-3.0039,1.6729-2.208,0-3.957-1.8833-3.957-4.7266-.0137-3.0986,1.9219-4.9399,4.1465-4.9399,1.2666,0,2.1777.5225,2.5918,1.2056h.0381V2.4155h2.3369Zm-2.3369,8.0923c0-.187-.0127-.4199-.0527-.6099-.207-.9009-.96-1.6421-2.0107-1.6421-1.5068,0-2.3418,1.3286-2.3418,3.043,0,1.7007.8428,2.9414,2.3154,2.9414.9551,0,1.7832-.6528,2.0186-1.6646.0537-.2085.0713-.437.0713-.6821v-1.3857Z" style="fill:#010101;"/><path d="m476.4751,11.9263c.0615,1.6758,1.3594,2.4082,2.8555,2.4082,1.0762,0,1.8457-.1685,2.5527-.4282l.3467,1.6099c-.792.3359-1.8906.5869-3.2324.5869-3.0029,0-4.7617-1.8555-4.7617-4.6895,0-2.5522,1.5488-4.9678,4.5234-4.9678,3.0059,0,3.9844,2.4717,3.9844,4.498,0,.4351-.0381.7827-.082.9824h-6.1865Zm4.0664-1.6304c.0107-.8564-.3613-2.2534-1.9287-2.2534-1.4385,0-2.0381,1.3071-2.1416,2.2534h4.0703Z" style="fill:#010101;"/></g><g><rect x="293.7709" y="103.8036" width="261.6503" height="23.146" style="fill:#91bf6d; stroke:#231f20; stroke-miterlimit:10; stroke-width:.5px;"/><polygon points="555.4213 103.8036 575.3308 115.5915 555.4213 126.9496 555.4213 103.8036" style="fill:#91bf6d; stroke:#231f20; stroke-miterlimit:10; stroke-width:.5px;"/><line x1="432.6775" y1="54.8459" x2="432.2052" y2="111.996" style="fill:none; stroke:#231f20; stroke-miterlimit:10;"/><g><path d="m381.8247,49.0527v-9.9448h1.4121l3.1855,5.0259c.7266,1.167,1.3047,2.2119,1.7744,3.2383l.0332-.0151c-.1172-1.3276-.1396-2.5405-.1396-4.0811v-4.168h1.209v9.9448h-1.3047l-3.1611-5.041c-.6846-1.1143-1.3535-2.2485-1.8496-3.3296l-.0439.0151c.0762,1.2603.0938,2.459.0938,4.103v4.2524h-1.209Z" style="fill:#231f20;"/><path d="m398.4829,48.7339c-.4639.2334-1.416.4736-2.6279.4736-2.8018,0-4.9023-1.772-4.9023-5.0371,0-3.1211,2.1035-5.2178,5.1914-5.2178,1.2285,0,2.0215.2603,2.3594.4375l-.3164,1.0454c-.4834-.2295-1.1738-.4092-2.001-.4092-2.335,0-3.8789,1.4917-3.8789,4.103,0,2.4331,1.4023,3.9878,3.8115,3.9878.79,0,1.585-.1587,2.1064-.4077l.2578,1.0244Z" style="fill:#231f20;"/><path d="m400.0874,39.2441c.5674-.1235,1.4551-.2139,2.3457-.2139,1.2891,0,2.1133.2183,2.7305.7217.5146.3896.8311.9814.8311,1.7607,0,.9614-.6406,1.8076-1.6816,2.1782v.0396c.9463.2275,2.0537,1.0078,2.0537,2.4951,0,.8491-.3379,1.5059-.8516,1.9805-.6836.6436-1.8037.9341-3.4326.9341-.8906,0-1.5635-.062-1.9951-.1108v-9.7852Zm1.2832,4.0742h1.1768c1.3447,0,2.1406-.7158,2.1406-1.6797,0-1.1528-.873-1.6201-2.1729-1.6201-.5967,0-.9346.0439-1.1445.0928v3.207Zm0,4.7563c.2627.0527.6182.0659,1.082.0659,1.334,0,2.5596-.4883,2.5596-1.9351,0-1.3521-1.1709-1.9189-2.5723-1.9214h-1.0693v3.7905Z" style="fill:#231f20;"/><path d="m409.3735,39.1079v9.9448h-1.291v-9.9448h1.291Z" style="fill:#231f20;"/><path d="m422.3159,48.606c-.5762.2173-1.7178.5464-3.0576.5464-1.5078,0-2.751-.3813-3.7188-1.3145-.8574-.8247-1.3857-2.1445-1.3828-3.6924.0039-2.9663,2.0439-5.1372,5.376-5.1372,1.1494,0,2.0605.2524,2.4873.4556l-.3203,1.0479c-.5293-.2412-1.1934-.4258-2.1973-.4258-2.4121,0-3.9941,1.502-3.9941,3.9927,0,2.52,1.5117,4.0122,3.8389,4.0122.8398,0,1.4102-.1182,1.7061-.2681v-2.9624h-2.0117v-1.0273h3.2744v4.7729Z" style="fill:#231f20;"/><path d="m425.0278,45.7192c.0254,1.7539,1.1387,2.4775,2.4424,2.4775.9277,0,1.4961-.167,1.9756-.3657l.2275.9219c-.4531.2075-1.2471.4546-2.3809.4546-2.1924,0-3.5107-1.4604-3.5107-3.6016,0-2.1626,1.2734-3.8511,3.3574-3.8511,2.3281,0,2.9365,2.0425,2.9365,3.356,0,.2725-.0156.4673-.0439.6084h-5.0039Zm3.7979-.9336c.0137-.8179-.335-2.1011-1.79-2.1011-1.3242,0-1.8887,1.1978-1.9922,2.1011h3.7822Z" style="fill:#231f20;"/><path d="m431.6919,43.8442c0-.7446-.0244-1.3359-.0586-1.9272h1.1465l.0713,1.1733h.0361c.3516-.6704,1.1816-1.3354,2.3604-1.3354.9795,0,2.5146.5894,2.5146,3.041v4.2568h-1.291v-4.1143c0-1.1533-.4355-2.1196-1.6504-2.1196-.8516,0-1.5156.605-1.748,1.3315-.0537.1587-.0889.3887-.0889.6021v4.3003h-1.292v-5.2085Z" style="fill:#231f20;"/><path d="m440.606,45.7192c.0254,1.7539,1.1387,2.4775,2.4424,2.4775.9277,0,1.4961-.167,1.9756-.3657l.2275.9219c-.4531.2075-1.2471.4546-2.3809.4546-2.1924,0-3.5107-1.4604-3.5107-3.6016,0-2.1626,1.2734-3.8511,3.3574-3.8511,2.3281,0,2.9365,2.0425,2.9365,3.356,0,.2725-.0156.4673-.0439.6084h-5.0039Zm3.7979-.9336c.0137-.8179-.335-2.1011-1.79-2.1011-1.3242,0-1.8887,1.1978-1.9922,2.1011h3.7822Z" style="fill:#231f20;"/><path d="m450.4351,49.0527v-9.9448h1.4121l3.1855,5.0259c.7266,1.167,1.3047,2.2119,1.7744,3.2383l.0332-.0151c-.1172-1.3276-.1396-2.5405-.1396-4.0811v-4.168h1.209v9.9448h-1.3047l-3.1611-5.041c-.6846-1.1143-1.3535-2.2485-1.8496-3.3296l-.0439.0151c.0762,1.2603.0938,2.459.0938,4.103v4.2524h-1.209Z" style="fill:#231f20;"/><path d="m464.061,49.0527l-.1143-.9014h-.0391c-.3916.5571-1.1611,1.0635-2.1836,1.0635-1.4414,0-2.1797-1.0229-2.1797-2.0474,0-1.7285,1.5322-2.6777,4.2891-2.6582v-.1519c0-.5796-.1631-1.6538-1.625-1.646-.6641,0-1.3584.1982-1.8584.5317l-.2949-.8628c.5908-.3813,1.4551-.6255,2.3555-.6255,2.1807,0,2.7129,1.4912,2.7129,2.9204v2.6699c0,.6094.0273,1.2173.1074,1.7075h-1.1699Zm-.2021-3.6436c-1.4043-.0303-3.0117.2222-3.0117,1.6021,0,.8516.5596,1.2427,1.2109,1.2427.9395,0,1.5322-.5918,1.7393-1.1948.0449-.1382.0615-.2852.0615-.4087v-1.2412Z" style="fill:#231f20;"/><path d="m467.2144,43.8442c0-.7446-.0244-1.3359-.0586-1.9272h1.1279l.0684,1.1489h.0361c.3965-.6787,1.0625-1.311,2.252-1.311.9678,0,1.7061.5889,2.0117,1.4302h.0293c.2285-.4058.5107-.7144.8057-.9292.4316-.3242.8965-.501,1.5703-.501.9521,0,2.3555.6138,2.3555,3.0957v4.2021h-1.2666v-4.0356c0-1.3823-.5098-2.2007-1.5488-2.2007-.7441,0-1.3154.541-1.5439,1.168-.0625.1875-.1064.4199-.1064.6509v4.4175h-1.2666v-4.2822c0-1.1367-.5029-1.9541-1.4824-1.9541-.8086,0-1.4023.6455-1.6182,1.2954-.0635.1904-.0977.417-.0977.6392v4.3018h-1.2676v-5.2085Z" style="fill:#231f20;"/><path d="m480.2446,45.7192c.0254,1.7539,1.1387,2.4775,2.4424,2.4775.9277,0,1.4961-.167,1.9756-.3657l.2275.9219c-.4531.2075-1.2471.4546-2.3809.4546-2.1924,0-3.5107-1.4604-3.5107-3.6016,0-2.1626,1.2734-3.8511,3.3574-3.8511,2.3281,0,2.9365,2.0425,2.9365,3.356,0,.2725-.0156.4673-.0439.6084h-5.0039Zm3.7979-.9336c.0137-.8179-.335-2.1011-1.79-2.1011-1.3242,0-1.8887,1.1978-1.9922,2.1011h3.7822Z" style="fill:#231f20;"/></g><polyline points="422.4159 107.5066 432.3171 114.5789 422.375 121.1723" style="fill:#969796;"/><rect x="239.1668" y="97.0784" width="183.0828" height="35.6236" style="fill:#fff; opacity:.86; stroke:#a7a9ac; stroke-miterlimit:10;"/><rect x="554.3099" y="104.1759" width="1.4995" height="22.4039" style="fill:#91bf6d;"/><line x1="555.0886" y1="127.0458" x2="556.285" y2="126.4603" style="fill:none; stroke:#231f20; stroke-miterlimit:10; stroke-width:.5px;"/><line x1="555.192" y1="103.7902" x2="556.3884" y2="104.3757" style="fill:none; stroke:#231f20; stroke-miterlimit:10; stroke-width:.5px;"/><line x1="554.5843" y1="103.0668" x2="555.9163" y2="103.0668" style="fill:#91bf6d; stroke:#fff; stroke-miterlimit:10; stroke-width:.5px;"/><line x1="555.1242" y1="102.9234" x2="556.3503" y2="103.4439" style="fill:#91bf6d; stroke:#fff; stroke-miterlimit:10; stroke-width:.5px;"/><line x1="555.2134" y1="127.807" x2="556.4395" y2="127.2866" style="fill:#91bf6d; stroke:#fff; stroke-miterlimit:10; stroke-width:.5px;"/><line x1="554.5216" y1="127.6933" x2="555.8536" y2="127.6933" style="fill:#91bf6d; stroke:#fff; stroke-miterlimit:10; stroke-width:.5px;"/><g><path d="m243.4287,120.5918v-9.9448h1.4121l3.1855,5.0259c.7271,1.167,1.3047,2.2119,1.7744,3.2383l.0332-.0151c-.1167-1.3276-.1401-2.5405-.1401-4.0811v-4.168h1.2095v9.9448h-1.3047l-3.1611-5.041c-.6846-1.1143-1.3535-2.2485-1.8501-3.3296l-.0435.0151c.0767,1.2603.0942,2.459.0942,4.103v4.2524h-1.2095Z" style="fill:#231f20;"/><path d="m260.0864,120.2729c-.4639.2334-1.416.4736-2.6284.4736-2.8013,0-4.9023-1.772-4.9023-5.0371,0-3.1211,2.1045-5.2178,5.1914-5.2178,1.2285,0,2.0215.2603,2.3599.4375l-.3164,1.0454c-.4829-.2295-1.1738-.4092-2.0005-.4092-2.3354,0-3.8789,1.4917-3.8789,4.103,0,2.4331,1.4019,3.9878,3.8105,3.9878.79,0,1.5854-.1587,2.1069-.4077l.2578,1.0244Z" style="fill:#231f20;"/><path d="m261.6914,110.7832c.5679-.1235,1.4551-.2139,2.3457-.2139,1.2896,0,2.1133.2183,2.7305.7217.5142.3896.8311.9814.8311,1.7607,0,.9614-.6406,1.8076-1.6816,2.1782v.0396c.9463.2275,2.0532,1.0078,2.0532,2.4951,0,.8491-.3374,1.5059-.8506,1.9805-.6846.6436-1.8042.9341-3.4336.9341-.8901,0-1.563-.062-1.9946-.1108v-9.7852Zm1.2832,4.0742h1.1772c1.3442,0,2.1406-.7158,2.1406-1.6797,0-1.1528-.8735-1.6201-2.1738-1.6201-.5957,0-.9346.0439-1.144.0928v3.207Zm0,4.7563c.2627.0527.6177.0659,1.082.0659,1.334,0,2.5596-.4883,2.5596-1.9351,0-1.3521-1.1704-1.9189-2.5728-1.9214h-1.0688v3.7905Z" style="fill:#231f20;"/><path d="m270.978,110.647v9.9448h-1.291v-9.9448h1.291Z" style="fill:#231f20;"/><path d="m276.3398,110.7676c.6196-.1104,1.4316-.1982,2.4722-.1982,1.2607,0,2.1934.2915,2.7876.8267.5396.4756.8745,1.1963.8745,2.082,0,.9014-.2686,1.6128-.7729,2.1279-.6855.7271-1.7842,1.0894-3.0391,1.0894-.3901,0-.7427-.0146-1.0391-.0928v3.9893h-1.2832v-9.8242Zm1.2832,4.7896c.2856.0825.6436.1118,1.0654.1118,1.5576,0,2.498-.7646,2.498-2.123,0-1.3169-.9395-1.9604-2.3481-1.9604-.5664,0-.9883.0527-1.2153.1016v3.8701Z" style="fill:#231f20;"/><path d="m283.9116,115.6782c0-.8423-.021-1.5605-.0591-2.2222h1.1377l.0493,1.3999h.0464c.333-.9575,1.1201-1.562,1.9868-1.562.1406,0,.2427.0088.3613.0361v1.2207c-.1328-.0273-.2632-.0376-.4414-.0376-.915,0-1.561.6895-1.7373,1.6602-.0337.1821-.0522.395-.0522.606v3.8125h-1.2915v-4.9136Z" style="fill:#231f20;"/><path d="m295.0493,116.9551c0,2.6431-1.833,3.7988-3.5474,3.7988-1.936,0-3.4307-1.4102-3.4307-3.6758,0-2.3882,1.5698-3.7842,3.5439-3.7842,2.0503,0,3.4341,1.4878,3.4341,3.6611Zm-5.6572.083c0,1.5654.897,2.7437,2.1626,2.7437,1.2451,0,2.1743-1.1626,2.1743-2.7822,0-1.207-.6084-2.7334-2.1499-2.7334-1.5244,0-2.187,1.4194-2.187,2.772Z" style="fill:#231f20;"/><path d="m298.2466,111.4019v2.0542h1.8652v.9829h-1.8652v3.8457c0,.8892.2559,1.3916.9814,1.3916.3369,0,.5811-.0415.752-.0942l.0596.9863c-.252.0991-.6553.1782-1.1592.1782-.5967,0-1.0918-.1968-1.4014-.5493-.3574-.3936-.5039-1.0229-.5039-1.8613v-3.897h-1.1045v-.9829h1.1045v-1.7192l1.2715-.335Z" style="fill:#231f20;"/><path d="m302.2095,117.2583c.0254,1.7539,1.1387,2.4775,2.4424,2.4775.9277,0,1.4961-.167,1.9756-.3657l.2275.9219c-.4531.2075-1.2471.4546-2.3809.4546-2.1924,0-3.5107-1.4604-3.5107-3.6016,0-2.1626,1.2734-3.8511,3.3574-3.8511,2.3281,0,2.9365,2.0425,2.9365,3.356,0,.2725-.0156.4673-.0439.6084h-5.0039Zm3.7979-.9336c.0137-.8179-.335-2.1011-1.79-2.1011-1.3242,0-1.8887,1.1978-1.9922,2.1011h3.7822Z" style="fill:#231f20;"/><path d="m310.3247,111.4385c.001.4414-.3096.8066-.8252.8066-.4697,0-.7842-.3652-.7832-.8066-.001-.4453.3311-.8076.8066-.8076.4844,0,.7988.3545.8018.8076Zm-1.4502,9.1533v-7.1357h1.292v7.1357h-1.292Z" style="fill:#231f20;"/><path d="m312.3257,115.3833c0-.7446-.0244-1.3359-.0586-1.9272h1.1465l.0713,1.1733h.0361c.3516-.6704,1.1816-1.3354,2.3604-1.3354.9795,0,2.5146.5894,2.5146,3.041v4.2568h-1.291v-4.1143c0-1.1533-.4355-2.1196-1.6504-2.1196-.8516,0-1.5156.605-1.748,1.3315-.0537.1587-.0889.3887-.0889.6021v4.3003h-1.292v-5.2085Z" style="fill:#231f20;"/><path d="m323.6782,120.5918v-9.9448h1.4121l3.1855,5.0259c.7266,1.167,1.3047,2.2119,1.7744,3.2383l.0332-.0151c-.1172-1.3276-.1396-2.5405-.1396-4.0811v-4.168h1.209v9.9448h-1.3047l-3.1611-5.041c-.6846-1.1143-1.3535-2.2485-1.8496-3.3296l-.0439.0151c.0762,1.2603.0938,2.459.0938,4.103v4.2524h-1.209Z" style="fill:#231f20;"/><path d="m337.3042,120.5918l-.1143-.9014h-.0391c-.3916.5571-1.1611,1.0635-2.1836,1.0635-1.4414,0-2.1797-1.0229-2.1797-2.0474,0-1.7285,1.5322-2.6777,4.2891-2.6582v-.1519c0-.5796-.1631-1.6538-1.625-1.646-.6641,0-1.3584.1982-1.8594.5317l-.2939-.8628c.5908-.3813,1.4551-.6255,2.3555-.6255,2.1807,0,2.7129,1.4912,2.7129,2.9204v2.6699c0,.6094.0273,1.2173.1074,1.7075h-1.1699Zm-.2021-3.6436c-1.4043-.0303-3.0117.2222-3.0117,1.6021,0,.8516.5596,1.2427,1.2109,1.2427.9395,0,1.5322-.5918,1.7393-1.1948.0449-.1382.0615-.2852.0615-.4087v-1.2412Z" style="fill:#231f20;"/><path d="m340.4575,115.3833c0-.7446-.0244-1.3359-.0586-1.9272h1.1279l.0684,1.1489h.0361c.3965-.6787,1.0625-1.311,2.252-1.311.9678,0,1.7061.5889,2.0117,1.4302h.0293c.2285-.4058.5107-.7144.8057-.9292.4316-.3242.8965-.501,1.5703-.501.9521,0,2.3555.6138,2.3555,3.0957v4.2021h-1.2666v-4.0356c0-1.3823-.5098-2.2007-1.5488-2.2007-.7441,0-1.3154.541-1.5439,1.168-.0625.1875-.1064.4199-.1064.6509v4.4175h-1.2666v-4.2822c0-1.1367-.5029-1.9541-1.4834-1.9541-.8076,0-1.4014.6455-1.6172,1.2954-.0635.1904-.0977.417-.0977.6392v4.3018h-1.2676v-5.2085Z" style="fill:#231f20;"/><path d="m353.4878,117.2583c.0254,1.7539,1.1387,2.4775,2.4424,2.4775.9277,0,1.4961-.167,1.9756-.3657l.2275.9219c-.4531.2075-1.2471.4546-2.3809.4546-2.1924,0-3.5107-1.4604-3.5107-3.6016,0-2.1626,1.2734-3.8511,3.3574-3.8511,2.3281,0,2.9365,2.0425,2.9365,3.356,0,.2725-.0156.4673-.0439.6084h-5.0039Zm3.7979-.9336c.0137-.8179-.334-2.1011-1.79-2.1011-1.3242,0-1.8887,1.1978-1.9922,2.1011h3.7822Z" style="fill:#231f20;"/><path d="m359.8472,114.625c0-.5396.3613-.9312.877-.9312.5205,0,.8643.3862.8682.9312,0,.5146-.3428.9194-.877.9194-.5166,0-.876-.4048-.8682-.9194Zm0,5.2095c0-.5396.3613-.9312.877-.9312.5205,0,.8643.3862.8682.9312,0,.5151-.3428.9194-.877.9194-.5166,0-.876-.4043-.8682-.9194Z" style="fill:#231f20;"/><path d="m366.3706,110.7832c.7881-.1289,1.7217-.2139,2.7334-.2139,1.8398,0,3.1592.436,4.0283,1.249.8896.8052,1.4082,1.957,1.4082,3.5586,0,1.6304-.5088,2.9502-1.4307,3.8687-.9395.9258-2.4766,1.4336-4.4033,1.4336-.9199,0-1.6826-.0356-2.3359-.1108v-9.7852Zm1.29,8.7979c.3262.0527.8018.0605,1.292.0605,2.7529.0063,4.2354-1.5269,4.2354-4.2158.0156-2.3491-1.3135-3.8311-4.0225-3.8311-.6641,0-1.1621.0615-1.5049.1309v7.8555Z" style="fill:#231f20;"/><path d="m382.6753,116.9551c0,2.6431-1.833,3.7988-3.5479,3.7988-1.9355,0-3.4307-1.4102-3.4307-3.6758,0-2.3882,1.5693-3.7842,3.5439-3.7842,2.0508,0,3.4346,1.4878,3.4346,3.6611Zm-5.6582.083c0,1.5654.8975,2.7437,2.1631,2.7437,1.2451,0,2.1748-1.1626,2.1748-2.7822,0-1.207-.6084-2.7334-2.1514-2.7334-1.5234,0-2.1865,1.4194-2.1865,2.772Z" style="fill:#231f20;"/><path d="m384.3149,115.3833c0-.7446-.0244-1.3359-.0586-1.9272h1.1279l.0684,1.1489h.0361c.3965-.6787,1.0625-1.311,2.252-1.311.9678,0,1.7061.5889,2.0117,1.4302h.0293c.2285-.4058.5107-.7144.8057-.9292.4316-.3242.8965-.501,1.5703-.501.9521,0,2.3555.6138,2.3555,3.0957v4.2021h-1.2666v-4.0356c0-1.3823-.5098-2.2007-1.5488-2.2007-.7441,0-1.3154.541-1.5439,1.168-.0625.1875-.1064.4199-.1064.6509v4.4175h-1.2666v-4.2822c0-1.1367-.5029-1.9541-1.4834-1.9541-.8076,0-1.4014.6455-1.6172,1.2954-.0635.1904-.0977.417-.0977.6392v4.3018h-1.2676v-5.2085Z" style="fill:#231f20;"/><path d="m400.5757,120.5918l-.1143-.9014h-.0391c-.3916.5571-1.1611,1.0635-2.1836,1.0635-1.4414,0-2.1797-1.0229-2.1797-2.0474,0-1.7285,1.5322-2.6777,4.2891-2.6582v-.1519c0-.5796-.1631-1.6538-1.625-1.646-.6641,0-1.3584.1982-1.8594.5317l-.2939-.8628c.5908-.3813,1.4551-.6255,2.3555-.6255,2.1807,0,2.7129,1.4912,2.7129,2.9204v2.6699c0,.6094.0273,1.2173.1074,1.7075h-1.1699Zm-.2021-3.6436c-1.4043-.0303-3.0117.2222-3.0117,1.6021,0,.8516.5596,1.2427,1.2109,1.2427.9395,0,1.5322-.5918,1.7393-1.1948.0449-.1382.0615-.2852.0615-.4087v-1.2412Z" style="fill:#231f20;"/><path d="m405.1792,111.4385c.001.4414-.3096.8066-.8252.8066-.4697,0-.7842-.3652-.7832-.8066-.001-.4453.3311-.8076.8066-.8076.4844,0,.7988.3545.8018.8076Zm-1.4502,9.1533v-7.1357h1.292v7.1357h-1.292Z" style="fill:#231f20;"/><path d="m407.1802,115.3833c0-.7446-.0244-1.3359-.0586-1.9272h1.1465l.0713,1.1733h.0361c.3516-.6704,1.1816-1.3354,2.3604-1.3354.9795,0,2.5146.5894,2.5146,3.041v4.2568h-1.291v-4.1143c0-1.1533-.4355-2.1196-1.6504-2.1196-.8516,0-1.5156.605-1.748,1.3315-.0537.1587-.0889.3887-.0889.6021v4.3003h-1.292v-5.2085Z" style="fill:#231f20;"/><path d="m415.1841,119.2705c.3916.2441,1.0742.5083,1.7197.5083.9482,0,1.3867-.4658,1.3867-1.0625,0-.624-.377-.9512-1.3252-1.3066-1.29-.4668-1.9004-1.1685-1.8965-2.0234,0-1.1494.9336-2.0923,2.4688-2.0923.7256,0,1.3506.1963,1.7471.4385l-.3223.9438c-.2744-.1724-.7969-.4204-1.4639-.4204-.7656,0-1.1816.4419-1.1816.9795,0,.5908.4189.8545,1.3545,1.2173,1.2305.458,1.8691,1.0781,1.8721,2.144,0,1.2646-.9824,2.1499-2.6689,2.1499-.7812,0-1.5029-.2021-2.0049-.4971l.3145-.979Z" style="fill:#231f20;"/></g></g></svg>