<?xml version="1.0" encoding="utf-8"?>
<!-- Generator: Adobe Illustrator 27.2.0, SVG Export Plug-In . SVG Version: 6.00 Build 0)  -->
<svg version="1.1" id="Layer_1" xmlns="http://www.w3.org/2000/svg" xmlns:xlink="http://www.w3.org/1999/xlink" x="0px" y="0px"
	 viewBox="0 0 612 201.6" style="enable-background:new 0 0 612 201.6;" xml:space="preserve">
<style type="text/css">
	.st0{fill:#9ABD76;}
	.st1{fill:#EA9B40;}
	.st2{fill:#DD524E;}
	.st3{fill:#429489;stroke:#429489;stroke-width:0.71;stroke-linecap:round;stroke-linejoin:round;stroke-miterlimit:10;}
	.st4{enable-background:new    ;}
	.st5{fill:#010101;}
	.st6{fill:#F1C965;}
	.st7{fill:#5D748E;}
	.st8{fill:#9ABD76;stroke:#000000;stroke-width:0.5;stroke-miterlimit:10;}
	.st9{fill:none;stroke:#000000;stroke-miterlimit:10;}
	.st10{fill:#969796;}
	.st11{opacity:0.86;fill:#FFFFFF;stroke:#A7A9AB;stroke-miterlimit:10;}
	.st12{fill:none;stroke:#000000;stroke-width:0.5;stroke-miterlimit:10;}
	.st13{fill:#9ABD76;stroke:#FFFFFF;stroke-width:0.5;stroke-miterlimit:10;}
</style>
<circle class="st0" cx="21.9" cy="42.8" r="5.5"/>
<circle class="st1" cx="21.9" cy="67.8" r="5.5"/>
<circle class="st2" cx="21.9" cy="148.7" r="5.5"/>
<circle class="st3" cx="21.9" cy="94.4" r="5.5"/>
<g>
	<g class="st4">
		<path class="st5" d="M45.1,37.6v10.8h-1.4V37.6H45.1z"/>
		<path class="st5" d="M47.3,47c0.4,0.3,1.2,0.6,1.9,0.6c1,0,1.5-0.5,1.5-1.2c0-0.7-0.4-1-1.4-1.4c-1.4-0.5-2.1-1.3-2.1-2.2
			c0-1.2,1-2.3,2.7-2.3c0.8,0,1.5,0.2,1.9,0.5l-0.3,1c-0.3-0.2-0.9-0.5-1.6-0.5c-0.8,0-1.3,0.5-1.3,1.1c0,0.6,0.5,0.9,1.5,1.3
			c1.3,0.5,2,1.2,2,2.3c0,1.4-1.1,2.3-2.9,2.3c-0.8,0-1.6-0.2-2.2-0.5L47.3,47z"/>
		<path class="st5" d="M60.8,44.5c0,2.9-2,4.1-3.8,4.1c-2.1,0-3.7-1.5-3.7-4c0-2.6,1.7-4.1,3.8-4.1C59.3,40.5,60.8,42.1,60.8,44.5z
			 M54.7,44.6c0,1.7,1,3,2.3,3c1.4,0,2.4-1.3,2.4-3c0-1.3-0.7-3-2.3-3C55.4,41.5,54.7,43.1,54.7,44.6z"/>
		<path class="st5" d="M68.1,48.1c-0.4,0.2-1.2,0.4-2.2,0.4c-2.3,0-3.9-1.6-3.9-4c0-2.4,1.6-4.1,4.2-4.1c0.8,0,1.6,0.2,2,0.4
			L67.9,42c-0.3-0.2-0.9-0.4-1.6-0.4c-1.8,0-2.7,1.3-2.7,2.9c0,1.8,1.2,2.9,2.7,2.9c0.8,0,1.3-0.2,1.7-0.4L68.1,48.1z"/>
		<path class="st5" d="M70.3,40.7l1.7,4.6c0.2,0.5,0.4,1.1,0.5,1.6h0c0.1-0.5,0.3-1,0.5-1.6l1.5-4.5H76l-2.1,5.5
			c-1,2.7-1.7,4-2.7,4.9c-0.7,0.6-1.4,0.8-1.7,0.9l-0.3-1.2c0.4-0.1,0.8-0.3,1.2-0.7c0.4-0.3,0.9-0.9,1.2-1.6
			c0.1-0.1,0.1-0.3,0.1-0.3c0-0.1,0-0.2-0.1-0.4l-2.9-7.1H70.3z"/>
		<path class="st5" d="M81.6,48.4l-0.1-1h0c-0.4,0.6-1.3,1.2-2.4,1.2c-1.6,0-2.4-1.1-2.4-2.2c0-1.9,1.7-2.9,4.7-2.9v-0.2
			c0-0.6-0.2-1.8-1.8-1.8c-0.7,0-1.5,0.2-2,0.6l-0.3-0.9c0.6-0.4,1.6-0.7,2.6-0.7c2.4,0,2.9,1.6,2.9,3.2v2.9c0,0.7,0,1.3,0.1,1.9
			H81.6z M81.4,44.5c-1.5,0-3.3,0.2-3.3,1.7c0,0.9,0.6,1.3,1.3,1.3c1,0,1.7-0.6,1.9-1.3c0-0.1,0.1-0.3,0.1-0.4V44.5z"/>
		<path class="st5" d="M85,42.8c0-0.8,0-1.4-0.1-2.1h1.2l0.1,1.3h0c0.4-0.7,1.3-1.4,2.6-1.4c1.1,0,2.7,0.6,2.7,3.3v4.6h-1.4v-4.5
			c0-1.3-0.5-2.3-1.8-2.3c-0.9,0-1.6,0.7-1.9,1.4c-0.1,0.2-0.1,0.4-0.1,0.7v4.7H85V42.8z"/>
		<path class="st5" d="M95.5,38.5c0,0.5-0.3,0.9-0.9,0.9c-0.5,0-0.9-0.4-0.8-0.9c0-0.5,0.4-0.9,0.9-0.9C95.1,37.6,95.5,38,95.5,38.5
			z M93.9,48.4v-7.7h1.4v7.7H93.9z"/>
		<path class="st5" d="M104.3,37v9.4c0,0.7,0,1.5,0.1,2h-1.3l-0.1-1.3h0c-0.4,0.9-1.4,1.5-2.6,1.5c-1.9,0-3.3-1.6-3.3-3.9
			c0-2.6,1.6-4.2,3.5-4.2c1.2,0,2,0.6,2.3,1.2h0V37H104.3z M102.9,43.8c0-0.2,0-0.4-0.1-0.6c-0.2-0.9-1-1.6-2-1.6
			c-1.5,0-2.3,1.3-2.3,3c0,1.6,0.8,2.9,2.3,2.9c0.9,0,1.8-0.6,2.1-1.7c0.1-0.2,0.1-0.4,0.1-0.6V43.8z"/>
		<path class="st5" d="M107.5,44.8c0,1.9,1.2,2.7,2.6,2.7c1,0,1.6-0.2,2.1-0.4l0.2,1c-0.5,0.2-1.4,0.5-2.6,0.5
			c-2.4,0-3.8-1.6-3.8-3.9c0-2.3,1.4-4.2,3.6-4.2c2.5,0,3.2,2.2,3.2,3.6c0,0.3,0,0.5,0,0.7H107.5z M111.6,43.8
			c0-0.9-0.4-2.3-1.9-2.3c-1.4,0-2,1.3-2.2,2.3H111.6z"/>
		<path class="st5" d="M118,46.7c0.6,0.4,1.5,0.7,2.5,0.7c1.4,0,2.3-0.7,2.3-1.8c0-1-0.6-1.6-2-2.1c-1.8-0.6-2.9-1.6-2.9-3.1
			c0-1.7,1.4-2.9,3.5-2.9c1.1,0,1.9,0.3,2.4,0.5l-0.4,1.1c-0.3-0.2-1.1-0.5-2-0.5c-1.5,0-2,0.9-2,1.6c0,1,0.7,1.5,2.1,2.1
			c1.8,0.7,2.8,1.6,2.8,3.2c0,1.7-1.2,3.1-3.8,3.1c-1,0-2.2-0.3-2.8-0.7L118,46.7z"/>
		<path class="st5" d="M126.5,40.7l1.7,4.6c0.2,0.5,0.4,1.1,0.5,1.6h0c0.1-0.5,0.3-1,0.5-1.6l1.5-4.5h1.5l-2.1,5.5
			c-1,2.7-1.7,4-2.7,4.9c-0.7,0.6-1.4,0.8-1.7,0.9l-0.3-1.2c0.4-0.1,0.8-0.3,1.2-0.7c0.4-0.3,0.9-0.9,1.2-1.6
			c0.1-0.1,0.1-0.3,0.1-0.3c0-0.1,0-0.2-0.1-0.4l-2.9-7.1H126.5z"/>
		<path class="st5" d="M133.5,42.8c0-0.8,0-1.4-0.1-2.1h1.2l0.1,1.3h0c0.4-0.7,1.3-1.4,2.6-1.4c1.1,0,2.7,0.6,2.7,3.3v4.6h-1.4v-4.5
			c0-1.3-0.5-2.3-1.8-2.3c-0.9,0-1.6,0.7-1.9,1.4c-0.1,0.2-0.1,0.4-0.1,0.7v4.7h-1.4V42.8z"/>
		<path class="st5" d="M144.1,38.4v2.2h2v1.1h-2v4.2c0,1,0.3,1.5,1.1,1.5c0.4,0,0.6,0,0.8-0.1l0.1,1.1c-0.3,0.1-0.7,0.2-1.3,0.2
			c-0.6,0-1.2-0.2-1.5-0.6c-0.4-0.4-0.5-1.1-0.5-2v-4.2h-1.2v-1.1h1.2v-1.9L144.1,38.4z"/>
		<path class="st5" d="M147.7,37h1.4v4.8h0c0.2-0.4,0.6-0.8,1-1c0.4-0.2,0.9-0.4,1.4-0.4c1,0,2.7,0.6,2.7,3.3v4.6h-1.4V44
			c0-1.2-0.5-2.3-1.8-2.3c-0.9,0-1.6,0.6-1.9,1.4c-0.1,0.2-0.1,0.4-0.1,0.7v4.7h-1.4V37z"/>
		<path class="st5" d="M160.9,48.4l-0.1-1h0c-0.4,0.6-1.3,1.2-2.4,1.2c-1.6,0-2.4-1.1-2.4-2.2c0-1.9,1.7-2.9,4.7-2.9v-0.2
			c0-0.6-0.2-1.8-1.8-1.8c-0.7,0-1.5,0.2-2,0.6l-0.3-0.9c0.6-0.4,1.6-0.7,2.6-0.7c2.4,0,2.9,1.6,2.9,3.2v2.9c0,0.7,0,1.3,0.1,1.9
			H160.9z M160.6,44.5c-1.5,0-3.3,0.2-3.3,1.7c0,0.9,0.6,1.3,1.3,1.3c1,0,1.7-0.6,1.9-1.3c0-0.1,0.1-0.3,0.1-0.4V44.5z"/>
		<path class="st5" d="M164.1,47c0.4,0.3,1.2,0.6,1.9,0.6c1,0,1.5-0.5,1.5-1.2c0-0.7-0.4-1-1.4-1.4c-1.4-0.5-2.1-1.3-2.1-2.2
			c0-1.2,1-2.3,2.7-2.3c0.8,0,1.5,0.2,1.9,0.5l-0.3,1c-0.3-0.2-0.9-0.5-1.6-0.5c-0.8,0-1.3,0.5-1.3,1.1c0,0.6,0.5,0.9,1.5,1.3
			c1.3,0.5,2,1.2,2,2.3c0,1.4-1.1,2.3-2.9,2.3c-0.8,0-1.6-0.2-2.2-0.5L164.1,47z"/>
		<path class="st5" d="M171.4,44.8c0,1.9,1.2,2.7,2.6,2.7c1,0,1.6-0.2,2.1-0.4l0.2,1c-0.5,0.2-1.4,0.5-2.6,0.5
			c-2.4,0-3.8-1.6-3.8-3.9c0-2.3,1.4-4.2,3.6-4.2c2.5,0,3.2,2.2,3.2,3.6c0,0.3,0,0.5,0,0.7H171.4z M175.5,43.8
			c0-0.9-0.4-2.3-1.9-2.3c-1.4,0-2,1.3-2.2,2.3H175.5z"/>
	</g>
</g>
<g>
	<g class="st4">
		<path class="st5" d="M43.7,65.2c0-1,0-1.8-0.1-2.5h1.3l0.1,1.3h0c0.6-0.9,1.5-1.5,2.7-1.5c1.9,0,3.3,1.6,3.3,3.9
			c0,2.8-1.7,4.2-3.5,4.2c-1,0-1.9-0.5-2.4-1.2h0v4.2h-1.4V65.2z M45.1,67.3c0,0.2,0,0.4,0.1,0.6c0.3,1,1.1,1.7,2.1,1.7
			c1.5,0,2.4-1.2,2.4-3c0-1.5-0.8-2.9-2.3-2.9c-1,0-1.9,0.7-2.1,1.7c0,0.2-0.1,0.4-0.1,0.6V67.3z"/>
		<path class="st5" d="M56.7,70.4v-2.8h-4.8v-0.9l4.6-6.6H58v6.5h1.5v1.1H58v2.8H56.7z M56.7,66.5V63c0-0.5,0-1.1,0.1-1.6l-0.1,0
			c-0.3,0.6-0.6,1.1-0.9,1.5l-2.5,3.5l0,0H56.7z"/>
		<path class="st5" d="M66.7,61.2h-4l-0.4,2.7c0.2,0,0.5-0.1,0.8-0.1c0.8,0,1.6,0.2,2.2,0.6c0.8,0.5,1.5,1.4,1.5,2.7
			c0,2-1.6,3.5-3.9,3.5c-1.1,0-2.1-0.3-2.6-0.6l0.4-1.1c0.4,0.3,1.3,0.6,2.2,0.6c1.3,0,2.5-0.9,2.5-2.3c0-1.3-0.9-2.3-3-2.3
			c-0.6,0-1.1,0.1-1.4,0.1l0.7-5h5V61.2z"/>
		<path class="st5" d="M75.7,65.1c0,3.5-1.3,5.5-3.6,5.5c-2,0-3.4-1.9-3.4-5.3c0-3.5,1.5-5.4,3.6-5.4C74.4,59.9,75.7,61.8,75.7,65.1
			z M70,65.3c0,2.7,0.8,4.2,2.1,4.2c1.4,0,2.1-1.7,2.1-4.3c0-2.6-0.7-4.2-2.1-4.2C70.9,61,70,62.5,70,65.3z"/>
	</g>
</g>
<g>
	<g class="st4">
		<path class="st5" d="M52.8,149.2c-0.1-1.5-0.2-3.3-0.2-4.7h0c-0.4,1.3-0.8,2.6-1.4,4.1l-1.9,5.2h-1.1l-1.8-5.1
			c-0.5-1.5-0.9-2.9-1.2-4.2h0c0,1.3-0.1,3.1-0.2,4.8l-0.3,4.6h-1.3l0.8-10.8H46l1.8,5.2c0.4,1.3,0.8,2.5,1.1,3.6h0
			c0.3-1.1,0.7-2.3,1.1-3.6l1.9-5.2h1.8l0.7,10.8h-1.4L52.8,149.2z"/>
		<path class="st5" d="M63,151.8c0,0.8,0,1.5,0.1,2.1h-1.2l-0.1-1.3h0c-0.4,0.6-1.2,1.4-2.6,1.4c-1.2,0-2.7-0.7-2.7-3.4v-4.5h1.4
			v4.3c0,1.5,0.5,2.5,1.7,2.5c0.9,0,1.6-0.7,1.9-1.3c0.1-0.2,0.1-0.5,0.1-0.7v-4.7H63V151.8z"/>
		<path class="st5" d="M65.4,142.5h1.4v11.4h-1.4V142.5z"/>
		<path class="st5" d="M70.8,143.9v2.2h2v1.1h-2v4.2c0,1,0.3,1.5,1.1,1.5c0.4,0,0.6,0,0.8-0.1l0.1,1.1c-0.3,0.1-0.7,0.2-1.3,0.2
			c-0.6,0-1.2-0.2-1.5-0.6c-0.4-0.4-0.5-1.1-0.5-2v-4.2h-1.2v-1.1h1.2v-1.9L70.8,143.9z"/>
		<path class="st5" d="M76,144c0,0.5-0.3,0.9-0.9,0.9c-0.5,0-0.9-0.4-0.8-0.9c0-0.5,0.4-0.9,0.9-0.9C75.7,143.1,76,143.5,76,144z
			 M74.4,153.9v-7.7h1.4v7.7H74.4z"/>
		<path class="st5" d="M78.2,148.7c0-1,0-1.8-0.1-2.5h1.3l0.1,1.3h0c0.6-0.9,1.5-1.5,2.7-1.5c1.9,0,3.3,1.6,3.3,3.9
			c0,2.8-1.7,4.2-3.5,4.2c-1,0-1.9-0.5-2.4-1.2h0v4.2h-1.4V148.7z M79.6,150.8c0,0.2,0,0.4,0.1,0.6c0.3,1,1.1,1.7,2.1,1.7
			c1.5,0,2.4-1.2,2.4-3c0-1.5-0.8-2.9-2.3-2.9c-1,0-1.9,0.7-2.1,1.7c0,0.2-0.1,0.4-0.1,0.6V150.8z"/>
		<path class="st5" d="M87.3,142.5h1.4v11.4h-1.4V142.5z"/>
		<path class="st5" d="M91.8,150.3c0,1.9,1.2,2.7,2.6,2.7c1,0,1.6-0.2,2.1-0.4l0.2,1c-0.5,0.2-1.4,0.5-2.6,0.5
			c-2.4,0-3.8-1.6-3.8-3.9c0-2.3,1.4-4.2,3.6-4.2c2.5,0,3.2,2.2,3.2,3.6c0,0.3,0,0.5,0,0.7H91.8z M96,149.3c0-0.9-0.4-2.3-1.9-2.3
			c-1.4,0-2,1.3-2.2,2.3H96z"/>
		<path class="st5" d="M102.5,143.3c0.9-0.1,1.9-0.2,3-0.2c2,0,3.4,0.5,4.4,1.4c1,0.9,1.5,2.1,1.5,3.9c0,1.8-0.6,3.2-1.6,4.2
			c-1,1-2.7,1.6-4.8,1.6c-1,0-1.8,0-2.5-0.1V143.3z M103.9,152.8c0.4,0.1,0.9,0.1,1.4,0.1c3,0,4.6-1.7,4.6-4.6
			c0-2.5-1.4-4.2-4.4-4.2c-0.7,0-1.3,0.1-1.6,0.1V152.8z"/>
		<path class="st5" d="M120.1,150c0,2.9-2,4.1-3.8,4.1c-2.1,0-3.7-1.5-3.7-4c0-2.6,1.7-4.1,3.8-4.1C118.6,146,120.1,147.6,120.1,150
			z M114,150.1c0,1.7,1,3,2.3,3c1.4,0,2.4-1.3,2.4-3c0-1.3-0.7-3-2.3-3C114.7,147,114,148.6,114,150.1z"/>
		<path class="st5" d="M121.9,148.3c0-0.8,0-1.4-0.1-2.1h1.2l0.1,1.2h0c0.4-0.7,1.2-1.4,2.4-1.4c1,0,1.8,0.6,2.2,1.6h0
			c0.2-0.4,0.6-0.8,0.9-1c0.5-0.4,1-0.5,1.7-0.5c1,0,2.6,0.7,2.6,3.4v4.6h-1.4v-4.4c0-1.5-0.6-2.4-1.7-2.4c-0.8,0-1.4,0.6-1.7,1.3
			c-0.1,0.2-0.1,0.5-0.1,0.7v4.8h-1.4v-4.6c0-1.2-0.5-2.1-1.6-2.1c-0.9,0-1.5,0.7-1.8,1.4c-0.1,0.2-0.1,0.5-0.1,0.7v4.7h-1.4V148.3z
			"/>
		<path class="st5" d="M139.5,153.9l-0.1-1h0c-0.4,0.6-1.3,1.2-2.4,1.2c-1.6,0-2.4-1.1-2.4-2.2c0-1.9,1.7-2.9,4.7-2.9v-0.2
			c0-0.6-0.2-1.8-1.8-1.8c-0.7,0-1.5,0.2-2,0.6l-0.3-0.9c0.6-0.4,1.6-0.7,2.6-0.7c2.4,0,2.9,1.6,2.9,3.2v2.9c0,0.7,0,1.3,0.1,1.9
			H139.5z M139.3,150c-1.5,0-3.3,0.2-3.3,1.7c0,0.9,0.6,1.3,1.3,1.3c1,0,1.7-0.6,1.9-1.3c0-0.1,0.1-0.3,0.1-0.4V150z"/>
		<path class="st5" d="M144.5,144c0,0.5-0.3,0.9-0.9,0.9c-0.5,0-0.9-0.4-0.8-0.9c0-0.5,0.4-0.9,0.9-0.9
			C144.2,143.1,144.5,143.5,144.5,144z M143,153.9v-7.7h1.4v7.7H143z"/>
		<path class="st5" d="M146.7,148.3c0-0.8,0-1.4-0.1-2.1h1.2l0.1,1.3h0c0.4-0.7,1.3-1.4,2.6-1.4c1.1,0,2.7,0.6,2.7,3.3v4.6h-1.4
			v-4.5c0-1.3-0.5-2.3-1.8-2.3c-0.9,0-1.6,0.7-1.9,1.4c-0.1,0.2-0.1,0.4-0.1,0.7v4.7h-1.4V148.3z"/>
		<path class="st5" d="M159,143.3c0.9-0.1,1.9-0.2,3-0.2c2,0,3.4,0.5,4.4,1.4c1,0.9,1.5,2.1,1.5,3.9c0,1.8-0.6,3.2-1.6,4.2
			c-1,1-2.7,1.6-4.8,1.6c-1,0-1.8,0-2.5-0.1V143.3z M160.4,152.8c0.4,0.1,0.9,0.1,1.4,0.1c3,0,4.6-1.7,4.6-4.6
			c0-2.5-1.4-4.2-4.4-4.2c-0.7,0-1.3,0.1-1.6,0.1V152.8z"/>
		<path class="st5" d="M170.4,150.3c0,1.9,1.2,2.7,2.6,2.7c1,0,1.6-0.2,2.1-0.4l0.2,1c-0.5,0.2-1.4,0.5-2.6,0.5
			c-2.4,0-3.8-1.6-3.8-3.9c0-2.3,1.4-4.2,3.6-4.2c2.5,0,3.2,2.2,3.2,3.6c0,0.3,0,0.5,0,0.7H170.4z M174.5,149.3
			c0-0.9-0.4-2.3-1.9-2.3c-1.4,0-2,1.3-2.2,2.3H174.5z"/>
		<path class="st5" d="M179.3,143.9v2.2h2v1.1h-2v4.2c0,1,0.3,1.5,1.1,1.5c0.4,0,0.6,0,0.8-0.1l0.1,1.1c-0.3,0.1-0.7,0.2-1.3,0.2
			c-0.6,0-1.2-0.2-1.5-0.6c-0.4-0.4-0.5-1.1-0.5-2v-4.2h-1.2v-1.1h1.2v-1.9L179.3,143.9z"/>
		<path class="st5" d="M183.7,150.3c0,1.9,1.2,2.7,2.6,2.7c1,0,1.6-0.2,2.1-0.4l0.2,1c-0.5,0.2-1.4,0.5-2.6,0.5
			c-2.4,0-3.8-1.6-3.8-3.9c0-2.3,1.4-4.2,3.6-4.2c2.5,0,3.2,2.2,3.2,3.6c0,0.3,0,0.5,0,0.7H183.7z M187.8,149.3
			c0-0.9-0.4-2.3-1.9-2.3c-1.4,0-2,1.3-2.2,2.3H187.8z"/>
		<path class="st5" d="M196.5,153.6c-0.4,0.2-1.2,0.4-2.2,0.4c-2.3,0-3.9-1.6-3.9-4c0-2.4,1.6-4.1,4.2-4.1c0.8,0,1.6,0.2,2,0.4
			l-0.3,1.1c-0.3-0.2-0.9-0.4-1.6-0.4c-1.8,0-2.7,1.3-2.7,2.9c0,1.8,1.2,2.9,2.7,2.9c0.8,0,1.3-0.2,1.7-0.4L196.5,153.6z"/>
		<path class="st5" d="M199.8,143.9v2.2h2v1.1h-2v4.2c0,1,0.3,1.5,1.1,1.5c0.4,0,0.6,0,0.8-0.1l0.1,1.1c-0.3,0.1-0.7,0.2-1.3,0.2
			c-0.6,0-1.2-0.2-1.5-0.6c-0.4-0.4-0.5-1.1-0.5-2v-4.2h-1.2v-1.1h1.2v-1.9L199.8,143.9z"/>
		<path class="st5" d="M204.2,150.3c0,1.9,1.2,2.7,2.6,2.7c1,0,1.6-0.2,2.1-0.4l0.2,1c-0.5,0.2-1.4,0.5-2.6,0.5
			c-2.4,0-3.8-1.6-3.8-3.9c0-2.3,1.4-4.2,3.6-4.2c2.5,0,3.2,2.2,3.2,3.6c0,0.3,0,0.5,0,0.7H204.2z M208.3,149.3
			c0-0.9-0.4-2.3-1.9-2.3c-1.4,0-2,1.3-2.2,2.3H208.3z"/>
		<path class="st5" d="M218.1,142.5v9.4c0,0.7,0,1.5,0.1,2h-1.3l-0.1-1.3h0c-0.4,0.9-1.4,1.5-2.6,1.5c-1.9,0-3.3-1.6-3.3-3.9
			c0-2.6,1.6-4.2,3.5-4.2c1.2,0,2,0.6,2.3,1.2h0v-4.6H218.1z M216.7,149.3c0-0.2,0-0.4-0.1-0.6c-0.2-0.9-1-1.6-2-1.6
			c-1.5,0-2.3,1.3-2.3,3c0,1.6,0.8,2.9,2.3,2.9c0.9,0,1.8-0.6,2.1-1.7c0.1-0.2,0.1-0.4,0.1-0.6V149.3z"/>
	</g>
</g>
<g>
	<g class="st4">
		<path class="st5" d="M45.1,87.4v10.8h-1.4V87.4H45.1z"/>
		<path class="st5" d="M47.3,96.7c0.4,0.3,1.2,0.6,1.9,0.6c1,0,1.5-0.5,1.5-1.2c0-0.7-0.4-1-1.4-1.4c-1.4-0.5-2.1-1.3-2.1-2.2
			c0-1.2,1-2.3,2.7-2.3c0.8,0,1.5,0.2,1.9,0.5l-0.3,1c-0.3-0.2-0.9-0.5-1.6-0.5c-0.8,0-1.3,0.5-1.3,1.1c0,0.6,0.5,0.9,1.5,1.3
			c1.3,0.5,2,1.2,2,2.3c0,1.4-1.1,2.3-2.9,2.3c-0.8,0-1.6-0.2-2.2-0.5L47.3,96.7z"/>
		<path class="st5" d="M60.8,94.2c0,2.9-2,4.1-3.8,4.1c-2.1,0-3.7-1.5-3.7-4c0-2.6,1.7-4.1,3.8-4.1C59.3,90.3,60.8,91.9,60.8,94.2z
			 M54.7,94.3c0,1.7,1,3,2.3,3c1.4,0,2.4-1.3,2.4-3c0-1.3-0.7-3-2.3-3C55.4,91.3,54.7,92.9,54.7,94.3z"/>
		<path class="st5" d="M68.1,97.9c-0.4,0.2-1.2,0.4-2.2,0.4c-2.3,0-3.9-1.6-3.9-4c0-2.4,1.6-4.1,4.2-4.1c0.8,0,1.6,0.2,2,0.4
			l-0.3,1.1c-0.3-0.2-0.9-0.4-1.6-0.4c-1.8,0-2.7,1.3-2.7,2.9c0,1.8,1.2,2.9,2.7,2.9c0.8,0,1.3-0.2,1.7-0.4L68.1,97.9z"/>
		<path class="st5" d="M70.3,90.4L72,95c0.2,0.5,0.4,1.1,0.5,1.6h0c0.1-0.5,0.3-1,0.5-1.6l1.5-4.5H76L73.9,96c-1,2.7-1.7,4-2.7,4.9
			c-0.7,0.6-1.4,0.8-1.7,0.9l-0.3-1.2c0.4-0.1,0.8-0.3,1.2-0.7c0.4-0.3,0.9-0.9,1.2-1.6c0.1-0.1,0.1-0.3,0.1-0.3
			c0-0.1,0-0.2-0.1-0.4l-2.9-7.1H70.3z"/>
		<path class="st5" d="M81.6,98.2l-0.1-1h0c-0.4,0.6-1.3,1.2-2.4,1.2c-1.6,0-2.4-1.1-2.4-2.2c0-1.9,1.7-2.9,4.7-2.9v-0.2
			c0-0.6-0.2-1.8-1.8-1.8c-0.7,0-1.5,0.2-2,0.6l-0.3-0.9c0.6-0.4,1.6-0.7,2.6-0.7c2.4,0,2.9,1.6,2.9,3.2v2.9c0,0.7,0,1.3,0.1,1.9
			H81.6z M81.4,94.2c-1.5,0-3.3,0.2-3.3,1.7c0,0.9,0.6,1.3,1.3,1.3c1,0,1.7-0.6,1.9-1.3c0-0.1,0.1-0.3,0.1-0.4V94.2z"/>
		<path class="st5" d="M85,92.5c0-0.8,0-1.4-0.1-2.1h1.2l0.1,1.3h0c0.4-0.7,1.3-1.4,2.6-1.4c1.1,0,2.7,0.6,2.7,3.3v4.6h-1.4v-4.5
			c0-1.3-0.5-2.3-1.8-2.3c-0.9,0-1.6,0.7-1.9,1.4c-0.1,0.2-0.1,0.4-0.1,0.7v4.7H85V92.5z"/>
		<path class="st5" d="M95.5,88.2c0,0.5-0.3,0.9-0.9,0.9c-0.5,0-0.9-0.4-0.8-0.9c0-0.5,0.4-0.9,0.9-0.9
			C95.1,87.4,95.5,87.8,95.5,88.2z M93.9,98.2v-7.7h1.4v7.7H93.9z"/>
		<path class="st5" d="M104.3,86.8v9.4c0,0.7,0,1.5,0.1,2h-1.3l-0.1-1.3h0c-0.4,0.9-1.4,1.5-2.6,1.5c-1.9,0-3.3-1.6-3.3-3.9
			c0-2.6,1.6-4.2,3.5-4.2c1.2,0,2,0.6,2.3,1.2h0v-4.6H104.3z M102.9,93.6c0-0.2,0-0.4-0.1-0.6c-0.2-0.9-1-1.6-2-1.6
			c-1.5,0-2.3,1.3-2.3,3c0,1.6,0.8,2.9,2.3,2.9c0.9,0,1.8-0.6,2.1-1.7c0.1-0.2,0.1-0.4,0.1-0.6V93.6z"/>
		<path class="st5" d="M107.5,94.6c0,1.9,1.2,2.7,2.6,2.7c1,0,1.6-0.2,2.1-0.4l0.2,1c-0.5,0.2-1.4,0.5-2.6,0.5
			c-2.4,0-3.8-1.6-3.8-3.9c0-2.3,1.4-4.2,3.6-4.2c2.5,0,3.2,2.2,3.2,3.6c0,0.3,0,0.5,0,0.7H107.5z M111.6,93.5
			c0-0.9-0.4-2.3-1.9-2.3c-1.4,0-2,1.3-2.2,2.3H111.6z"/>
		<path class="st5" d="M119,87.4v4.5h5.2v-4.5h1.4v10.8h-1.4v-5.1H119v5.1h-1.4V87.4H119z"/>
		<path class="st5" d="M128.5,90.4l1.7,4.6c0.2,0.5,0.4,1.1,0.5,1.6h0c0.1-0.5,0.3-1,0.5-1.6l1.5-4.5h1.5l-2.1,5.5
			c-1,2.7-1.7,4-2.7,4.9c-0.7,0.6-1.4,0.8-1.7,0.9l-0.3-1.2c0.4-0.1,0.8-0.3,1.2-0.7c0.4-0.3,0.9-0.9,1.2-1.6
			c0.1-0.1,0.1-0.3,0.1-0.3c0-0.1,0-0.2-0.1-0.4l-2.9-7.1H128.5z"/>
		<path class="st5" d="M142.2,86.8v9.4c0,0.7,0,1.5,0.1,2H141l-0.1-1.3h0c-0.4,0.9-1.4,1.5-2.6,1.5c-1.9,0-3.3-1.6-3.3-3.9
			c0-2.6,1.6-4.2,3.5-4.2c1.2,0,2,0.6,2.3,1.2h0v-4.6H142.2z M140.8,93.6c0-0.2,0-0.4-0.1-0.6c-0.2-0.9-1-1.6-2-1.6
			c-1.5,0-2.3,1.3-2.3,3c0,1.6,0.8,2.9,2.3,2.9c0.9,0,1.8-0.6,2.1-1.7c0.1-0.2,0.1-0.4,0.1-0.6V93.6z"/>
		<path class="st5" d="M144.5,92.8c0-0.9,0-1.7-0.1-2.4h1.2l0.1,1.5h0c0.4-1,1.2-1.7,2.2-1.7c0.2,0,0.3,0,0.4,0v1.3
			c-0.1,0-0.3,0-0.5,0c-1,0-1.7,0.7-1.9,1.8c0,0.2-0.1,0.4-0.1,0.7v4.1h-1.4V92.8z"/>
		<path class="st5" d="M154.1,98.2l-0.1-1h0c-0.4,0.6-1.3,1.2-2.4,1.2c-1.6,0-2.4-1.1-2.4-2.2c0-1.9,1.7-2.9,4.7-2.9v-0.2
			c0-0.6-0.2-1.8-1.8-1.8c-0.7,0-1.5,0.2-2,0.6l-0.3-0.9c0.6-0.4,1.6-0.7,2.6-0.7c2.4,0,2.9,1.6,2.9,3.2v2.9c0,0.7,0,1.3,0.1,1.9
			H154.1z M153.8,94.2c-1.5,0-3.3,0.2-3.3,1.7c0,0.9,0.6,1.3,1.3,1.3c1,0,1.7-0.6,1.9-1.3c0-0.1,0.1-0.3,0.1-0.4V94.2z"/>
		<path class="st5" d="M159.2,88.2v2.2h2v1.1h-2v4.2c0,1,0.3,1.5,1.1,1.5c0.4,0,0.6,0,0.8-0.1l0.1,1.1c-0.3,0.1-0.7,0.2-1.3,0.2
			c-0.6,0-1.2-0.2-1.5-0.6c-0.4-0.4-0.5-1.1-0.5-2v-4.2h-1.2v-1.1h1.2v-1.9L159.2,88.2z"/>
		<path class="st5" d="M167.1,98.2l-0.1-1h0c-0.4,0.6-1.3,1.2-2.4,1.2c-1.6,0-2.4-1.1-2.4-2.2c0-1.9,1.7-2.9,4.7-2.9v-0.2
			c0-0.6-0.2-1.8-1.8-1.8c-0.7,0-1.5,0.2-2,0.6l-0.3-0.9c0.6-0.4,1.6-0.7,2.6-0.7c2.4,0,2.9,1.6,2.9,3.2v2.9c0,0.7,0,1.3,0.1,1.9
			H167.1z M166.8,94.2c-1.5,0-3.3,0.2-3.3,1.7c0,0.9,0.6,1.3,1.3,1.3c1,0,1.7-0.6,1.9-1.3c0-0.1,0.1-0.3,0.1-0.4V94.2z"/>
		<path class="st5" d="M170.3,96.7c0.4,0.3,1.2,0.6,1.9,0.6c1,0,1.5-0.5,1.5-1.2c0-0.7-0.4-1-1.4-1.4c-1.4-0.5-2.1-1.3-2.1-2.2
			c0-1.2,1-2.3,2.7-2.3c0.8,0,1.5,0.2,1.9,0.5l-0.3,1c-0.3-0.2-0.9-0.5-1.6-0.5c-0.8,0-1.3,0.5-1.3,1.1c0,0.6,0.5,0.9,1.5,1.3
			c1.3,0.5,2,1.2,2,2.3c0,1.4-1.1,2.3-2.9,2.3c-0.8,0-1.6-0.2-2.2-0.5L170.3,96.7z"/>
		<path class="st5" d="M177.6,94.6c0,1.9,1.2,2.7,2.6,2.7c1,0,1.6-0.2,2.1-0.4l0.2,1c-0.5,0.2-1.4,0.5-2.6,0.5
			c-2.4,0-3.8-1.6-3.8-3.9c0-2.3,1.4-4.2,3.6-4.2c2.5,0,3.2,2.2,3.2,3.6c0,0.3,0,0.5,0,0.7H177.6z M181.7,93.5
			c0-0.9-0.4-2.3-1.9-2.3c-1.4,0-2,1.3-2.2,2.3H181.7z"/>
	</g>
</g>
<g>
	<g class="st4">
		<path class="st5" d="M25.8,23.4c-0.8,0.3-2.4,0.7-4.1,0.7c-2.2,0-3.8-0.5-5-1.7c-1.1-1.1-1.8-2.8-1.8-4.7c0-4.1,2.9-6.7,7.1-6.7
			c1.6,0,2.8,0.3,3.4,0.6l-0.5,1.9C24.2,13.3,23.3,13,22,13c-2.7,0-4.7,1.6-4.7,4.6c0,2.9,1.8,4.6,4.4,4.6c0.8,0,1.5-0.1,1.8-0.3
			v-3.2h-2.3V17h4.5V23.4z"/>
		<path class="st5" d="M29.7,20c0.1,1.7,1.4,2.4,2.9,2.4c1.1,0,1.8-0.2,2.6-0.4l0.3,1.6c-0.8,0.3-1.9,0.6-3.2,0.6
			c-3,0-4.8-1.9-4.8-4.7c0-2.6,1.5-5,4.5-5c3,0,4,2.5,4,4.5c0,0.4,0,0.8-0.1,1H29.7z M33.8,18.4c0-0.9-0.4-2.3-1.9-2.3
			c-1.4,0-2,1.3-2.1,2.3H33.8z"/>
		<path class="st5" d="M37.9,17.5c0-1.1,0-1.9-0.1-2.8h2l0.1,1.4H40c0.4-0.7,1.4-1.6,2.9-1.6c1.6,0,3.3,1,3.3,4V24h-2.3v-5.2
			c0-1.3-0.5-2.3-1.8-2.3c-0.9,0-1.6,0.7-1.8,1.4c-0.1,0.2-0.1,0.5-0.1,0.7V24h-2.3V17.5z"/>
		<path class="st5" d="M50.4,20c0.1,1.7,1.4,2.4,2.9,2.4c1.1,0,1.8-0.2,2.6-0.4l0.3,1.6c-0.8,0.3-1.9,0.6-3.2,0.6
			c-3,0-4.8-1.9-4.8-4.7c0-2.6,1.5-5,4.5-5c3,0,4,2.5,4,4.5c0,0.4,0,0.8-0.1,1H50.4z M54.5,18.4c0-0.9-0.4-2.3-1.9-2.3
			c-1.4,0-2,1.3-2.1,2.3H54.5z"/>
		<path class="st5" d="M67.7,24l-0.2-1h-0.1c-0.6,0.7-1.5,1.2-2.7,1.2c-1.9,0-2.9-1.3-2.9-2.8c0-2.3,2.1-3.5,5.5-3.5v-0.2
			c0-0.6-0.2-1.6-1.9-1.6c-0.9,0-1.9,0.3-2.5,0.7l-0.5-1.5c0.7-0.4,1.9-0.8,3.4-0.8c3,0,3.8,1.9,3.8,3.9v3.3c0,0.8,0,1.7,0.1,2.2
			H67.7z M67.4,19.5c-1.6,0-3.2,0.3-3.2,1.7c0,0.9,0.6,1.3,1.3,1.3c0.9,0,1.6-0.6,1.8-1.3c0-0.2,0.1-0.3,0.1-0.5V19.5z"/>
		<path class="st5" d="M72.2,17.7c0-1.2,0-2.1-0.1-3h2l0.1,1.8h0.1c0.5-1.3,1.5-2,2.5-2c0.2,0,0.4,0,0.5,0.1v2.2
			c-0.2,0-0.4-0.1-0.7-0.1c-1.1,0-1.9,0.7-2.1,1.8c0,0.2-0.1,0.5-0.1,0.7V24h-2.3V17.7z"/>
		<path class="st5" d="M78.9,17.7c0-1.2,0-2.1-0.1-3h2l0.1,1.8H81c0.5-1.3,1.5-2,2.5-2c0.2,0,0.4,0,0.5,0.1v2.2
			c-0.2,0-0.4-0.1-0.7-0.1c-1.1,0-1.9,0.7-2.1,1.8c0,0.2-0.1,0.5-0.1,0.7V24h-2.3V17.7z"/>
		<path class="st5" d="M94.5,19.3c0,3.4-2.4,4.9-4.8,4.9c-2.6,0-4.6-1.8-4.6-4.8c0-3,2-4.9,4.8-4.9C92.6,14.6,94.5,16.5,94.5,19.3z
			 M87.5,19.4c0,1.8,0.9,3.1,2.3,3.1c1.3,0,2.3-1.3,2.3-3.2c0-1.5-0.6-3.1-2.3-3.1C88.2,16.3,87.5,17.9,87.5,19.4z"/>
		<path class="st5" d="M97.8,14.8l1,4.2c0.2,1,0.4,2,0.6,3h0c0.2-1,0.5-2,0.7-3l1.2-4.2h1.9l1.2,4.1c0.3,1.1,0.5,2.1,0.7,3.1h0
			c0.1-1,0.4-2,0.6-3.1l1-4.1h2.3l-2.9,9.2H104l-1.1-3.8c-0.3-1-0.5-1.8-0.7-3h0c-0.2,1.1-0.4,2-0.7,3l-1.2,3.8h-2.2l-2.7-9.2H97.8z
			"/>
		<path class="st5" d="M121.3,23.7c-0.5,0.2-1.5,0.5-2.6,0.5c-2.9,0-4.8-1.9-4.8-4.7c0-2.8,1.9-4.9,5.1-4.9c0.9,0,1.7,0.2,2.3,0.4
			l-0.4,1.8c-0.4-0.2-0.9-0.4-1.8-0.4c-1.8,0-2.8,1.3-2.8,3c0,1.9,1.2,3,2.8,3c0.8,0,1.4-0.2,1.8-0.4L121.3,23.7z"/>
		<path class="st5" d="M131.9,19.3c0,3.4-2.4,4.9-4.8,4.9c-2.6,0-4.6-1.8-4.6-4.8c0-3,2-4.9,4.8-4.9C130,14.6,131.9,16.5,131.9,19.3
			z M124.9,19.4c0,1.8,0.9,3.1,2.3,3.1c1.3,0,2.3-1.3,2.3-3.2c0-1.5-0.6-3.1-2.3-3.1C125.6,16.3,124.9,17.9,124.9,19.4z"/>
		<path class="st5" d="M133.8,10.5h2.3V24h-2.3V10.5z"/>
		<path class="st5" d="M147.5,19.3c0,3.4-2.4,4.9-4.8,4.9c-2.6,0-4.6-1.8-4.6-4.8c0-3,2-4.9,4.8-4.9
			C145.6,14.6,147.5,16.5,147.5,19.3z M140.5,19.4c0,1.8,0.9,3.1,2.3,3.1c1.3,0,2.3-1.3,2.3-3.2c0-1.5-0.6-3.1-2.3-3.1
			C141.2,16.3,140.5,17.9,140.5,19.4z"/>
		<path class="st5" d="M149.4,17.7c0-1.2,0-2.1-0.1-3h2l0.1,1.8h0.1c0.5-1.3,1.5-2,2.5-2c0.2,0,0.4,0,0.5,0.1v2.2
			c-0.2,0-0.4-0.1-0.7-0.1c-1.1,0-1.9,0.7-2.1,1.8c0,0.2-0.1,0.5-0.1,0.7V24h-2.3V17.7z"/>
		<path class="st5" d="M162.4,18.8L162.4,18.8c0.3-0.4,0.5-0.8,0.8-1.1l2.3-3h2.8l-3.4,3.8l3.9,5.5h-2.9l-2.7-4.1l-0.8,0.9V24h-2.3
			V10.5h2.3V18.8z"/>
		<path class="st5" d="M171.4,20c0.1,1.7,1.4,2.4,2.9,2.4c1.1,0,1.8-0.2,2.6-0.4l0.3,1.6c-0.8,0.3-1.9,0.6-3.2,0.6
			c-3,0-4.8-1.9-4.8-4.7c0-2.6,1.5-5,4.5-5c3,0,4,2.5,4,4.5c0,0.4,0,0.8-0.1,1H171.4z M175.5,18.4c0-0.9-0.4-2.3-1.9-2.3
			c-1.4,0-2,1.3-2.1,2.3H175.5z"/>
		<path class="st5" d="M181,14.8l1.7,5c0.2,0.6,0.4,1.3,0.5,1.8h0.1c0.1-0.5,0.3-1.2,0.5-1.8l1.4-4.9h2.5l-2.3,6.3
			c-1.3,3.5-2.1,5-3.2,5.9c-0.9,0.8-1.9,1.1-2.5,1.2l-0.5-2c0.4-0.1,0.9-0.3,1.4-0.6c0.4-0.3,1-0.8,1.3-1.5c0.1-0.2,0.1-0.3,0.1-0.4
			c0-0.1,0-0.2-0.1-0.5l-3.4-8.5H181z"/>
	</g>
</g>
<g>
	<g class="st4">
		<path class="st5" d="M52.9,122.1c0,3.7-2.3,5.7-5,5.7c-2.9,0-4.8-2.2-4.8-5.5c0-3.4,2.1-5.7,5-5.7C51,116.6,52.9,118.9,52.9,122.1
			z M44.6,122.3c0,2.3,1.3,4.4,3.5,4.4c2.2,0,3.5-2,3.5-4.5c0-2.1-1.1-4.4-3.4-4.4C45.7,117.8,44.6,119.9,44.6,122.3z"/>
		<path class="st5" d="M54.7,121.9c0-0.8,0-1.4-0.1-2.1h1.2l0.1,1.3h0c0.4-0.7,1.3-1.4,2.6-1.4c1.1,0,2.7,0.6,2.7,3.3v4.6h-1.4v-4.5
			c0-1.3-0.5-2.3-1.8-2.3c-0.9,0-1.6,0.7-1.9,1.4c-0.1,0.2-0.1,0.4-0.1,0.7v4.7h-1.4V121.9z"/>
		<path class="st5" d="M64.4,124c0,1.9,1.2,2.7,2.6,2.7c1,0,1.6-0.2,2.1-0.4l0.2,1c-0.5,0.2-1.4,0.5-2.6,0.5c-2.4,0-3.8-1.6-3.8-3.9
			c0-2.3,1.4-4.2,3.6-4.2c2.5,0,3.2,2.2,3.2,3.6c0,0.3,0,0.5,0,0.7H64.4z M68.5,123c0-0.9-0.4-2.3-1.9-2.3c-1.4,0-2,1.3-2.2,2.3
			H68.5z"/>
		<path class="st5" d="M75,116.9c0.9-0.1,1.9-0.2,3-0.2c2,0,3.4,0.5,4.4,1.4c1,0.9,1.5,2.1,1.5,3.9c0,1.8-0.6,3.2-1.6,4.2
			c-1,1-2.7,1.6-4.8,1.6c-1,0-1.8,0-2.5-0.1V116.9z M76.4,126.5c0.4,0.1,0.9,0.1,1.4,0.1c3,0,4.6-1.7,4.6-4.6c0-2.5-1.4-4.2-4.4-4.2
			c-0.7,0-1.3,0.1-1.6,0.1V126.5z"/>
		<path class="st5" d="M92.6,123.6c0,2.9-2,4.1-3.8,4.1c-2.1,0-3.7-1.5-3.7-4c0-2.6,1.7-4.1,3.8-4.1
			C91.1,119.7,92.6,121.3,92.6,123.6z M86.5,123.7c0,1.7,1,3,2.3,3c1.4,0,2.4-1.3,2.4-3c0-1.3-0.7-3-2.3-3
			C87.2,120.7,86.5,122.3,86.5,123.7z"/>
		<path class="st5" d="M94.4,121.9c0-0.8,0-1.4-0.1-2.1h1.2l0.1,1.2h0c0.4-0.7,1.2-1.4,2.4-1.4c1,0,1.8,0.6,2.2,1.6h0
			c0.2-0.4,0.6-0.8,0.9-1c0.5-0.4,1-0.5,1.7-0.5c1,0,2.6,0.7,2.6,3.4v4.6h-1.4v-4.4c0-1.5-0.6-2.4-1.7-2.4c-0.8,0-1.4,0.6-1.7,1.3
			c-0.1,0.2-0.1,0.5-0.1,0.7v4.8h-1.4v-4.6c0-1.2-0.5-2.1-1.6-2.1c-0.9,0-1.5,0.7-1.8,1.4c-0.1,0.2-0.1,0.5-0.1,0.7v4.7h-1.4V121.9z
			"/>
		<path class="st5" d="M112.1,127.6l-0.1-1h0c-0.4,0.6-1.3,1.2-2.4,1.2c-1.6,0-2.4-1.1-2.4-2.2c0-1.9,1.7-2.9,4.7-2.9v-0.2
			c0-0.6-0.2-1.8-1.8-1.8c-0.7,0-1.5,0.2-2,0.6l-0.3-0.9c0.6-0.4,1.6-0.7,2.6-0.7c2.4,0,2.9,1.6,2.9,3.2v2.9c0,0.7,0,1.3,0.1,1.9
			H112.1z M111.8,123.6c-1.5,0-3.3,0.2-3.3,1.7c0,0.9,0.6,1.3,1.3,1.3c1,0,1.7-0.6,1.9-1.3c0-0.1,0.1-0.3,0.1-0.4V123.6z"/>
		<path class="st5" d="M117.1,117.7c0,0.5-0.3,0.9-0.9,0.9c-0.5,0-0.9-0.4-0.8-0.9c0-0.5,0.4-0.9,0.9-0.9
			C116.7,116.8,117.1,117.2,117.1,117.7z M115.5,127.6v-7.7h1.4v7.7H115.5z"/>
		<path class="st5" d="M119.2,121.9c0-0.8,0-1.4-0.1-2.1h1.2l0.1,1.3h0c0.4-0.7,1.3-1.4,2.6-1.4c1.1,0,2.7,0.6,2.7,3.3v4.6h-1.4
			v-4.5c0-1.3-0.5-2.3-1.8-2.3c-0.9,0-1.6,0.7-1.9,1.4c-0.1,0.2-0.1,0.4-0.1,0.7v4.7h-1.4V121.9z"/>
		<path class="st5" d="M131.5,116.9c0.9-0.1,1.9-0.2,3-0.2c2,0,3.4,0.5,4.4,1.4c1,0.9,1.5,2.1,1.5,3.9c0,1.8-0.6,3.2-1.6,4.2
			c-1,1-2.7,1.6-4.8,1.6c-1,0-1.8,0-2.5-0.1V116.9z M132.9,126.5c0.4,0.1,0.9,0.1,1.4,0.1c3,0,4.6-1.7,4.6-4.6
			c0-2.5-1.4-4.2-4.4-4.2c-0.7,0-1.3,0.1-1.6,0.1V126.5z"/>
		<path class="st5" d="M142.9,124c0,1.9,1.2,2.7,2.6,2.7c1,0,1.6-0.2,2.1-0.4l0.2,1c-0.5,0.2-1.4,0.5-2.6,0.5
			c-2.4,0-3.8-1.6-3.8-3.9c0-2.3,1.4-4.2,3.6-4.2c2.5,0,3.2,2.2,3.2,3.6c0,0.3,0,0.5,0,0.7H142.9z M147.1,123c0-0.9-0.4-2.3-1.9-2.3
			c-1.4,0-2,1.3-2.2,2.3H147.1z"/>
		<path class="st5" d="M151.9,117.6v2.2h2v1.1h-2v4.2c0,1,0.3,1.5,1.1,1.5c0.4,0,0.6,0,0.8-0.1l0.1,1.1c-0.3,0.1-0.7,0.2-1.3,0.2
			c-0.6,0-1.2-0.2-1.5-0.6c-0.4-0.4-0.5-1.1-0.5-2v-4.2h-1.2v-1.1h1.2V118L151.9,117.6z"/>
		<path class="st5" d="M156.3,124c0,1.9,1.2,2.7,2.6,2.7c1,0,1.6-0.2,2.1-0.4l0.2,1c-0.5,0.2-1.4,0.5-2.6,0.5
			c-2.4,0-3.8-1.6-3.8-3.9c0-2.3,1.4-4.2,3.6-4.2c2.5,0,3.2,2.2,3.2,3.6c0,0.3,0,0.5,0,0.7H156.3z M160.4,123c0-0.9-0.4-2.3-1.9-2.3
			c-1.4,0-2,1.3-2.2,2.3H160.4z"/>
		<path class="st5" d="M169,127.3c-0.4,0.2-1.2,0.4-2.2,0.4c-2.3,0-3.9-1.6-3.9-4c0-2.4,1.6-4.1,4.2-4.1c0.8,0,1.6,0.2,2,0.4
			l-0.3,1.1c-0.3-0.2-0.9-0.4-1.6-0.4c-1.8,0-2.7,1.3-2.7,2.9c0,1.8,1.2,2.9,2.7,2.9c0.8,0,1.3-0.2,1.7-0.4L169,127.3z"/>
		<path class="st5" d="M172.3,117.6v2.2h2v1.1h-2v4.2c0,1,0.3,1.5,1.1,1.5c0.4,0,0.6,0,0.8-0.1l0.1,1.1c-0.3,0.1-0.7,0.2-1.3,0.2
			c-0.6,0-1.2-0.2-1.5-0.6c-0.4-0.4-0.5-1.1-0.5-2v-4.2h-1.2v-1.1h1.2V118L172.3,117.6z"/>
		<path class="st5" d="M176.7,124c0,1.9,1.2,2.7,2.6,2.7c1,0,1.6-0.2,2.1-0.4l0.2,1c-0.5,0.2-1.4,0.5-2.6,0.5
			c-2.4,0-3.8-1.6-3.8-3.9c0-2.3,1.4-4.2,3.6-4.2c2.5,0,3.2,2.2,3.2,3.6c0,0.3,0,0.5,0,0.7H176.7z M180.9,123c0-0.9-0.4-2.3-1.9-2.3
			c-1.4,0-2,1.3-2.2,2.3H180.9z"/>
		<path class="st5" d="M190.6,116.2v9.4c0,0.7,0,1.5,0.1,2h-1.3l-0.1-1.3h0c-0.4,0.9-1.4,1.5-2.6,1.5c-1.9,0-3.3-1.6-3.3-3.9
			c0-2.6,1.6-4.2,3.5-4.2c1.2,0,2,0.6,2.3,1.2h0v-4.6H190.6z M189.2,123c0-0.2,0-0.4-0.1-0.6c-0.2-0.9-1-1.6-2-1.6
			c-1.5,0-2.3,1.3-2.3,3c0,1.6,0.8,2.9,2.3,2.9c0.9,0,1.8-0.6,2.1-1.7c0.1-0.2,0.1-0.4,0.1-0.6V123z"/>
	</g>
</g>
<circle class="st6" cx="21.9" cy="123.3" r="5.5"/>
<g>
	<g class="st4">
		<path class="st5" d="M43.7,182.2v-10.8h1.5l3.5,5.5c0.8,1.3,1.4,2.4,1.9,3.5l0,0c-0.1-1.4-0.2-2.8-0.2-4.4v-4.5h1.3v10.8h-1.4
			l-3.4-5.5c-0.7-1.2-1.5-2.4-2-3.6l0,0c0.1,1.4,0.1,2.7,0.1,4.5v4.6H43.7z"/>
		<path class="st5" d="M61.2,178.3c0,2.9-2,4.1-3.8,4.1c-2.1,0-3.7-1.5-3.7-4c0-2.6,1.7-4.1,3.8-4.1
			C59.7,174.3,61.2,175.9,61.2,178.3z M55.1,178.4c0,1.7,1,3,2.3,3c1.4,0,2.4-1.3,2.4-3c0-1.3-0.7-3-2.3-3
			C55.8,175.4,55.1,176.9,55.1,178.4z"/>
		<path class="st5" d="M73.1,170.9v9.4c0,0.7,0,1.5,0.1,2h-1.3l-0.1-1.3h0c-0.4,0.9-1.4,1.5-2.6,1.5c-1.9,0-3.3-1.6-3.3-3.9
			c0-2.6,1.6-4.2,3.5-4.2c1.2,0,2,0.6,2.3,1.2h0v-4.6H73.1z M71.7,177.6c0-0.2,0-0.4-0.1-0.6c-0.2-0.9-1-1.6-2-1.6
			c-1.5,0-2.3,1.3-2.3,3c0,1.6,0.8,2.9,2.3,2.9c0.9,0,1.8-0.6,2.1-1.7c0.1-0.2,0.1-0.4,0.1-0.6V177.6z"/>
		<path class="st5" d="M82.4,178.3c0,2.9-2,4.1-3.8,4.1c-2.1,0-3.7-1.5-3.7-4c0-2.6,1.7-4.1,3.8-4.1
			C80.9,174.3,82.4,175.9,82.4,178.3z M76.3,178.4c0,1.7,1,3,2.3,3c1.4,0,2.4-1.3,2.4-3c0-1.3-0.7-3-2.3-3
			C77,175.4,76.3,176.9,76.3,178.4z"/>
		<path class="st5" d="M84.2,176.6c0-0.8,0-1.4-0.1-2.1h1.2l0.1,1.2h0c0.4-0.7,1.2-1.4,2.4-1.4c1,0,1.8,0.6,2.2,1.6h0
			c0.2-0.4,0.6-0.8,0.9-1c0.5-0.4,1-0.5,1.7-0.5c1,0,2.6,0.7,2.6,3.4v4.6h-1.4v-4.4c0-1.5-0.6-2.4-1.7-2.4c-0.8,0-1.4,0.6-1.7,1.3
			c-0.1,0.2-0.1,0.5-0.1,0.7v4.8H89v-4.6c0-1.2-0.5-2.1-1.6-2.1c-0.9,0-1.5,0.7-1.8,1.4c-0.1,0.2-0.1,0.5-0.1,0.7v4.7h-1.4V176.6z"
			/>
		<path class="st5" d="M101.8,182.2l-0.1-1h0c-0.4,0.6-1.3,1.2-2.4,1.2c-1.6,0-2.4-1.1-2.4-2.2c0-1.9,1.7-2.9,4.7-2.9v-0.2
			c0-0.6-0.2-1.8-1.8-1.8c-0.7,0-1.5,0.2-2,0.6l-0.3-0.9c0.6-0.4,1.6-0.7,2.6-0.7c2.4,0,2.9,1.6,2.9,3.2v2.9c0,0.7,0,1.3,0.1,1.9
			H101.8z M101.6,178.3c-1.5,0-3.3,0.2-3.3,1.7c0,0.9,0.6,1.3,1.3,1.3c1,0,1.7-0.6,1.9-1.3c0-0.1,0.1-0.3,0.1-0.4V178.3z"/>
		<path class="st5" d="M106.8,172.3c0,0.5-0.3,0.9-0.9,0.9c-0.5,0-0.9-0.4-0.8-0.9c0-0.5,0.4-0.9,0.9-0.9
			C106.5,171.4,106.8,171.8,106.8,172.3z M105.2,182.2v-7.7h1.4v7.7H105.2z"/>
		<path class="st5" d="M109,176.6c0-0.8,0-1.4-0.1-2.1h1.2l0.1,1.3h0c0.4-0.7,1.3-1.4,2.6-1.4c1.1,0,2.7,0.6,2.7,3.3v4.6h-1.4v-4.5
			c0-1.3-0.5-2.3-1.8-2.3c-0.9,0-1.6,0.7-1.9,1.4c-0.1,0.2-0.1,0.4-0.1,0.7v4.7H109V176.6z"/>
		<path class="st5" d="M117.7,180.8c0.4,0.3,1.2,0.6,1.9,0.6c1,0,1.5-0.5,1.5-1.2c0-0.7-0.4-1-1.4-1.4c-1.4-0.5-2.1-1.3-2.1-2.2
			c0-1.2,1-2.3,2.7-2.3c0.8,0,1.5,0.2,1.9,0.5l-0.3,1c-0.3-0.2-0.9-0.5-1.6-0.5c-0.8,0-1.3,0.5-1.3,1.1c0,0.6,0.5,0.9,1.5,1.3
			c1.3,0.5,2,1.2,2,2.3c0,1.4-1.1,2.3-2.9,2.3c-0.8,0-1.6-0.2-2.2-0.5L117.7,180.8z"/>
	</g>
</g>
<circle class="st7" cx="21.9" cy="176.2" r="5.5"/>
<g>
	<g class="st4">
		<path class="st5" d="M354.5,20.4l-1.1,3.6H351l4.1-12.8h3l4.2,12.8h-2.5l-1.2-3.6H354.5z M358.2,18.6l-1-3.2
			c-0.2-0.8-0.5-1.7-0.7-2.4h0c-0.2,0.8-0.4,1.6-0.6,2.4l-1,3.2H358.2z"/>
		<path class="st5" d="M364,17.5c0-1.1,0-1.9-0.1-2.8h2l0.1,1.4h0.1c0.4-0.7,1.4-1.6,2.9-1.6c1.6,0,3.3,1,3.3,4V24H370v-5.2
			c0-1.3-0.5-2.3-1.8-2.3c-0.9,0-1.6,0.7-1.8,1.4c-0.1,0.2-0.1,0.5-0.1,0.7V24H364V17.5z"/>
		<path class="st5" d="M374.8,17.5c0-1.1,0-1.9-0.1-2.8h2l0.1,1.4h0.1c0.4-0.7,1.4-1.6,2.9-1.6c1.6,0,3.3,1,3.3,4V24h-2.3v-5.2
			c0-1.3-0.5-2.3-1.8-2.3c-0.9,0-1.6,0.7-1.8,1.4c-0.1,0.2-0.1,0.5-0.1,0.7V24h-2.3V17.5z"/>
		<path class="st5" d="M394.5,19.3c0,3.4-2.4,4.9-4.8,4.9c-2.6,0-4.6-1.8-4.6-4.8c0-3,2-4.9,4.8-4.9
			C392.7,14.6,394.5,16.5,394.5,19.3z M387.5,19.4c0,1.8,0.9,3.1,2.3,3.1c1.3,0,2.3-1.3,2.3-3.2c0-1.5-0.6-3.1-2.3-3.1
			C388.2,16.3,387.5,17.9,387.5,19.4z"/>
		<path class="st5" d="M399.1,12.1v2.6h2.2v1.7h-2.2v4.1c0,1.1,0.3,1.7,1.2,1.7c0.4,0,0.7,0,0.9-0.1l0,1.8c-0.4,0.1-1,0.2-1.7,0.2
			c-0.9,0-1.6-0.3-2-0.8c-0.5-0.5-0.7-1.4-0.7-2.6v-4.3h-1.3v-1.7h1.3v-2.1L399.1,12.1z"/>
		<path class="st5" d="M408.3,24l-0.2-1h-0.1c-0.6,0.7-1.5,1.2-2.7,1.2c-1.9,0-2.9-1.3-2.9-2.8c0-2.3,2.1-3.5,5.5-3.5v-0.2
			c0-0.6-0.2-1.6-1.9-1.6c-0.9,0-1.9,0.3-2.5,0.7l-0.5-1.5c0.7-0.4,1.9-0.8,3.4-0.8c3,0,3.8,1.9,3.8,3.9v3.3c0,0.8,0,1.7,0.1,2.2
			H408.3z M408,19.5c-1.6,0-3.2,0.3-3.2,1.7c0,0.9,0.6,1.3,1.3,1.3c0.9,0,1.6-0.6,1.8-1.3c0-0.2,0.1-0.3,0.1-0.5V19.5z"/>
		<path class="st5" d="M415.4,12.1v2.6h2.2v1.7h-2.2v4.1c0,1.1,0.3,1.7,1.2,1.7c0.4,0,0.7,0,0.9-0.1l0,1.8c-0.4,0.1-1,0.2-1.7,0.2
			c-0.9,0-1.6-0.3-2-0.8c-0.5-0.5-0.7-1.4-0.7-2.6v-4.3h-1.3v-1.7h1.3v-2.1L415.4,12.1z"/>
		<path class="st5" d="M421.9,12.2c0,0.7-0.5,1.3-1.3,1.3c-0.8,0-1.3-0.6-1.3-1.3c0-0.7,0.5-1.3,1.3-1.3
			C421.4,10.9,421.9,11.5,421.9,12.2z M419.4,24v-9.2h2.3V24H419.4z"/>
		<path class="st5" d="M433.1,19.3c0,3.4-2.4,4.9-4.8,4.9c-2.6,0-4.6-1.8-4.6-4.8c0-3,2-4.9,4.8-4.9
			C431.2,14.6,433.1,16.5,433.1,19.3z M426.1,19.4c0,1.8,0.9,3.1,2.3,3.1c1.3,0,2.3-1.3,2.3-3.2c0-1.5-0.6-3.1-2.3-3.1
			C426.8,16.3,426.1,17.9,426.1,19.4z"/>
		<path class="st5" d="M435,17.5c0-1.1,0-1.9-0.1-2.8h2l0.1,1.4h0.1c0.4-0.7,1.4-1.6,2.9-1.6c1.6,0,3.3,1,3.3,4V24H441v-5.2
			c0-1.3-0.5-2.3-1.8-2.3c-0.9,0-1.6,0.7-1.8,1.4c-0.1,0.2-0.1,0.5-0.1,0.7V24H435V17.5z"/>
		<path class="st5" d="M460.1,23.4c-0.8,0.3-2.4,0.7-4.1,0.7c-2.2,0-3.8-0.5-5-1.7c-1.1-1.1-1.8-2.8-1.8-4.7c0-4.1,2.9-6.7,7.1-6.7
			c1.6,0,2.8,0.3,3.4,0.6l-0.5,1.9c-0.7-0.3-1.6-0.5-2.9-0.5c-2.7,0-4.7,1.6-4.7,4.6c0,2.9,1.8,4.6,4.4,4.6c0.8,0,1.5-0.1,1.8-0.3
			v-3.2h-2.3V17h4.5V23.4z"/>
		<path class="st5" d="M470.7,21.3c0,1.1,0,2,0.1,2.8h-2l-0.1-1.4h-0.1c-0.4,0.6-1.3,1.6-3,1.6c-1.7,0-3.2-1-3.2-4v-5.4h2.3v5
			c0,1.5,0.5,2.5,1.7,2.5c0.9,0,1.5-0.7,1.8-1.2c0.1-0.2,0.1-0.5,0.1-0.7v-5.6h2.3V21.3z"/>
		<path class="st5" d="M475.7,12.2c0,0.7-0.5,1.3-1.3,1.3c-0.8,0-1.3-0.6-1.3-1.3c0-0.7,0.5-1.3,1.3-1.3
			C475.2,10.9,475.7,11.5,475.7,12.2z M473.3,24v-9.2h2.3V24H473.3z"/>
		<path class="st5" d="M486.6,10.5v10.9c0,0.9,0,2,0.1,2.6h-2.1l-0.1-1.5h0c-0.6,1-1.7,1.7-3,1.7c-2.2,0-4-1.9-4-4.7
			c0-3.1,1.9-4.9,4.1-4.9c1.3,0,2.2,0.5,2.6,1.2h0v-5.2H486.6z M484.3,18.6c0-0.2,0-0.4-0.1-0.6c-0.2-0.9-1-1.6-2-1.6
			c-1.5,0-2.3,1.3-2.3,3c0,1.7,0.8,2.9,2.3,2.9c1,0,1.8-0.7,2-1.7c0.1-0.2,0.1-0.4,0.1-0.7V18.6z"/>
		<path class="st5" d="M490.8,20c0.1,1.7,1.4,2.4,2.9,2.4c1.1,0,1.8-0.2,2.6-0.4l0.3,1.6c-0.8,0.3-1.9,0.6-3.2,0.6
			c-3,0-4.8-1.9-4.8-4.7c0-2.6,1.5-5,4.5-5c3,0,4,2.5,4,4.5c0,0.4,0,0.8-0.1,1H490.8z M494.9,18.4c0-0.9-0.4-2.3-1.9-2.3
			c-1.4,0-2,1.3-2.1,2.3H494.9z"/>
	</g>
</g>
<g>
	<rect x="307.9" y="111.9" class="st8" width="261.7" height="23.1"/>
	<polygon class="st8" points="569.6,111.9 589.5,123.7 569.6,135.1 	"/>
	<line class="st9" x1="446.9" y1="63" x2="446.4" y2="120.1"/>
	<g>
		<g>
			<path d="M396,57.2v-9.9h1.4l3.2,5c0.7,1.2,1.3,2.2,1.8,3.2l0,0c-0.1-1.3-0.1-2.5-0.1-4.1v-4.2h1.2v9.9h-1.3l-3.2-5
				c-0.7-1.1-1.4-2.2-1.8-3.3l0,0c0.1,1.3,0.1,2.5,0.1,4.1v4.3H396z"/>
			<path d="M412.7,56.9c-0.5,0.2-1.4,0.5-2.6,0.5c-2.8,0-4.9-1.8-4.9-5c0-3.1,2.1-5.2,5.2-5.2c1.2,0,2,0.3,2.4,0.4l-0.3,1
				c-0.5-0.2-1.2-0.4-2-0.4c-2.3,0-3.9,1.5-3.9,4.1c0,2.4,1.4,4,3.8,4c0.8,0,1.6-0.2,2.1-0.4L412.7,56.9z"/>
			<path d="M414.3,47.4c0.6-0.1,1.5-0.2,2.3-0.2c1.3,0,2.1,0.2,2.7,0.7c0.5,0.4,0.8,1,0.8,1.8c0,1-0.6,1.8-1.7,2.2v0
				c0.9,0.2,2.1,1,2.1,2.5c0,0.8-0.3,1.5-0.9,2c-0.7,0.6-1.8,0.9-3.4,0.9c-0.9,0-1.6-0.1-2-0.1V47.4z M415.5,51.4h1.2
				c1.3,0,2.1-0.7,2.1-1.7c0-1.2-0.9-1.6-2.2-1.6c-0.6,0-0.9,0-1.1,0.1V51.4z M415.5,56.2c0.3,0.1,0.6,0.1,1.1,0.1
				c1.3,0,2.6-0.5,2.6-1.9c0-1.4-1.2-1.9-2.6-1.9h-1.1V56.2z"/>
			<path d="M423.6,47.2v9.9h-1.3v-9.9H423.6z"/>
			<path d="M436.5,56.7c-0.6,0.2-1.7,0.5-3.1,0.5c-1.5,0-2.8-0.4-3.7-1.3c-0.9-0.8-1.4-2.1-1.4-3.7c0-3,2-5.1,5.4-5.1
				c1.1,0,2.1,0.3,2.5,0.5l-0.3,1c-0.5-0.2-1.2-0.4-2.2-0.4c-2.4,0-4,1.5-4,4c0,2.5,1.5,4,3.8,4c0.8,0,1.4-0.1,1.7-0.3v-3h-2v-1h3.3
				V56.7z"/>
			<path d="M439.1,53.8c0,1.8,1.1,2.5,2.4,2.5c0.9,0,1.5-0.2,2-0.4l0.2,0.9c-0.5,0.2-1.2,0.5-2.4,0.5c-2.2,0-3.5-1.5-3.5-3.6
				c0-2.2,1.3-3.9,3.4-3.9c2.3,0,2.9,2,2.9,3.4c0,0.3,0,0.5,0,0.6H439.1z M442.9,52.9c0-0.8-0.3-2.1-1.8-2.1c-1.3,0-1.9,1.2-2,2.1
				H442.9z"/>
			<path d="M445.8,52c0-0.7,0-1.3-0.1-1.9h1.1l0.1,1.2h0c0.4-0.7,1.2-1.3,2.4-1.3c1,0,2.5,0.6,2.5,3v4.3h-1.3v-4.1
				c0-1.2-0.4-2.1-1.7-2.1c-0.9,0-1.5,0.6-1.7,1.3c-0.1,0.2-0.1,0.4-0.1,0.6v4.3h-1.3V52z"/>
			<path d="M454.7,53.8c0,1.8,1.1,2.5,2.4,2.5c0.9,0,1.5-0.2,2-0.4l0.2,0.9c-0.5,0.2-1.2,0.5-2.4,0.5c-2.2,0-3.5-1.5-3.5-3.6
				c0-2.2,1.3-3.9,3.4-3.9c2.3,0,2.9,2,2.9,3.4c0,0.3,0,0.5,0,0.6H454.7z M458.5,52.9c0-0.8-0.3-2.1-1.8-2.1c-1.3,0-1.9,1.2-2,2.1
				H458.5z"/>
			<path d="M464.5,57.2v-9.9h1.4l3.2,5c0.7,1.2,1.3,2.2,1.8,3.2l0,0c-0.1-1.3-0.1-2.5-0.1-4.1v-4.2h1.2v9.9h-1.3l-3.2-5
				c-0.7-1.1-1.4-2.2-1.8-3.3l0,0c0.1,1.3,0.1,2.5,0.1,4.1v4.3H464.5z"/>
			<path d="M478.2,57.2l-0.1-0.9h0c-0.4,0.6-1.2,1.1-2.2,1.1c-1.4,0-2.2-1-2.2-2c0-1.7,1.5-2.7,4.3-2.7v-0.2c0-0.6-0.2-1.7-1.6-1.6
				c-0.7,0-1.4,0.2-1.9,0.5l-0.3-0.9c0.6-0.4,1.5-0.6,2.4-0.6c2.2,0,2.7,1.5,2.7,2.9v2.7c0,0.6,0,1.2,0.1,1.7H478.2z M478,53.5
				c-1.4,0-3,0.2-3,1.6c0,0.9,0.6,1.2,1.2,1.2c0.9,0,1.5-0.6,1.7-1.2c0-0.1,0.1-0.3,0.1-0.4V53.5z"/>
			<path d="M481.3,52c0-0.7,0-1.3-0.1-1.9h1.1l0.1,1.1h0c0.4-0.7,1.1-1.3,2.3-1.3c1,0,1.7,0.6,2,1.4h0c0.2-0.4,0.5-0.7,0.8-0.9
				c0.4-0.3,0.9-0.5,1.6-0.5c1,0,2.4,0.6,2.4,3.1v4.2h-1.3v-4c0-1.4-0.5-2.2-1.5-2.2c-0.7,0-1.3,0.5-1.5,1.2
				c-0.1,0.2-0.1,0.4-0.1,0.7v4.4h-1.3v-4.3c0-1.1-0.5-2-1.5-2c-0.8,0-1.4,0.6-1.6,1.3c-0.1,0.2-0.1,0.4-0.1,0.6v4.3h-1.3V52z"/>
			<path d="M494.3,53.8c0,1.8,1.1,2.5,2.4,2.5c0.9,0,1.5-0.2,2-0.4l0.2,0.9c-0.5,0.2-1.2,0.5-2.4,0.5c-2.2,0-3.5-1.5-3.5-3.6
				c0-2.2,1.3-3.9,3.4-3.9c2.3,0,2.9,2,2.9,3.4c0,0.3,0,0.5,0,0.6H494.3z M498.1,52.9c0-0.8-0.3-2.1-1.8-2.1c-1.3,0-1.9,1.2-2,2.1
				H498.1z"/>
		</g>
	</g>
	<polyline class="st10" points="436.6,115.6 446.5,122.7 436.6,129.3 	"/>
	<rect x="253.3" y="105.2" class="st11" width="183.1" height="35.6"/>
	<rect x="568.5" y="112.3" class="st0" width="1.5" height="22.4"/>
	<line class="st12" x1="569.3" y1="135.2" x2="570.5" y2="134.6"/>
	<line class="st12" x1="569.4" y1="111.9" x2="570.6" y2="112.5"/>
	<line class="st13" x1="568.8" y1="111.2" x2="570.1" y2="111.2"/>
	<line class="st13" x1="569.3" y1="111" x2="570.5" y2="111.6"/>
	<line class="st13" x1="569.4" y1="135.9" x2="570.6" y2="135.4"/>
	<line class="st13" x1="568.7" y1="135.8" x2="570" y2="135.8"/>
	<g>
		<g>
			<path d="M257.6,128.7v-9.9h1.4l3.2,5c0.7,1.2,1.3,2.2,1.8,3.2l0,0c-0.1-1.3-0.1-2.5-0.1-4.1v-4.2h1.2v9.9h-1.3l-3.2-5
				c-0.7-1.1-1.4-2.2-1.9-3.3l0,0c0.1,1.3,0.1,2.5,0.1,4.1v4.3H257.6z"/>
			<path d="M274.3,128.4c-0.5,0.2-1.4,0.5-2.6,0.5c-2.8,0-4.9-1.8-4.9-5c0-3.1,2.1-5.2,5.2-5.2c1.2,0,2,0.3,2.4,0.4l-0.3,1
				c-0.5-0.2-1.2-0.4-2-0.4c-2.3,0-3.9,1.5-3.9,4.1c0,2.4,1.4,4,3.8,4c0.8,0,1.6-0.2,2.1-0.4L274.3,128.4z"/>
			<path d="M275.9,118.9c0.6-0.1,1.5-0.2,2.3-0.2c1.3,0,2.1,0.2,2.7,0.7c0.5,0.4,0.8,1,0.8,1.8c0,1-0.6,1.8-1.7,2.2v0
				c0.9,0.2,2.1,1,2.1,2.5c0,0.8-0.3,1.5-0.9,2c-0.7,0.6-1.8,0.9-3.4,0.9c-0.9,0-1.6-0.1-2-0.1V118.9z M277.2,123h1.2
				c1.3,0,2.1-0.7,2.1-1.7c0-1.2-0.9-1.6-2.2-1.6c-0.6,0-0.9,0-1.1,0.1V123z M277.2,127.7c0.3,0.1,0.6,0.1,1.1,0.1
				c1.3,0,2.6-0.5,2.6-1.9c0-1.4-1.2-1.9-2.6-1.9h-1.1V127.7z"/>
			<path d="M285.2,118.8v9.9h-1.3v-9.9H285.2z"/>
			<path d="M290.5,118.9c0.6-0.1,1.4-0.2,2.5-0.2c1.3,0,2.2,0.3,2.8,0.8c0.5,0.5,0.9,1.2,0.9,2.1c0,0.9-0.3,1.6-0.8,2.1
				c-0.7,0.7-1.8,1.1-3,1.1c-0.4,0-0.7,0-1-0.1v4h-1.3V118.9z M291.8,123.7c0.3,0.1,0.6,0.1,1.1,0.1c1.6,0,2.5-0.8,2.5-2.1
				c0-1.3-0.9-2-2.3-2c-0.6,0-1,0.1-1.2,0.1V123.7z"/>
			<path d="M298.3,123.8c0-0.8,0-1.6-0.1-2.2h1.1l0,1.4h0c0.3-1,1.1-1.6,2-1.6c0.1,0,0.2,0,0.4,0v1.2c-0.1,0-0.3,0-0.4,0
				c-0.9,0-1.6,0.7-1.7,1.7c0,0.2-0.1,0.4-0.1,0.6v3.8h-1.3V123.8z"/>
			<path d="M309.6,125.1c0,2.6-1.8,3.8-3.5,3.8c-1.9,0-3.4-1.4-3.4-3.7c0-2.4,1.6-3.8,3.5-3.8C308.2,121.4,309.6,122.9,309.6,125.1z
				 M304,125.2c0,1.6,0.9,2.7,2.2,2.7c1.2,0,2.2-1.2,2.2-2.8c0-1.2-0.6-2.7-2.1-2.7C304.6,122.4,304,123.8,304,125.2z"/>
			<path d="M312.8,119.5v2.1h1.9v1h-1.9v3.8c0,0.9,0.3,1.4,1,1.4c0.3,0,0.6,0,0.8-0.1l0.1,1c-0.3,0.1-0.7,0.2-1.2,0.2
				c-0.6,0-1.1-0.2-1.4-0.5c-0.4-0.4-0.5-1-0.5-1.9v-3.9h-1.1v-1h1.1v-1.7L312.8,119.5z"/>
			<path d="M316.9,125.4c0,1.8,1.1,2.5,2.4,2.5c0.9,0,1.5-0.2,2-0.4l0.2,0.9c-0.5,0.2-1.2,0.5-2.4,0.5c-2.2,0-3.5-1.5-3.5-3.6
				c0-2.2,1.3-3.9,3.4-3.9c2.3,0,2.9,2,2.9,3.4c0,0.3,0,0.5,0,0.6H316.9z M320.7,124.4c0-0.8-0.3-2.1-1.8-2.1c-1.3,0-1.9,1.2-2,2.1
				H320.7z"/>
			<path d="M325,119.6c0,0.4-0.3,0.8-0.8,0.8c-0.5,0-0.8-0.4-0.8-0.8c0-0.4,0.3-0.8,0.8-0.8C324.7,118.8,325,119.1,325,119.6z
				 M323.5,128.7v-7.1h1.3v7.1H323.5z"/>
			<path d="M327,123.5c0-0.7,0-1.3-0.1-1.9h1.1l0.1,1.2h0c0.4-0.7,1.2-1.3,2.4-1.3c1,0,2.5,0.6,2.5,3v4.3h-1.3v-4.1
				c0-1.2-0.4-2.1-1.7-2.1c-0.9,0-1.5,0.6-1.7,1.3c-0.1,0.2-0.1,0.4-0.1,0.6v4.3H327V123.5z"/>
			<path d="M338.3,128.7v-9.9h1.4l3.2,5c0.7,1.2,1.3,2.2,1.8,3.2l0,0c-0.1-1.3-0.1-2.5-0.1-4.1v-4.2h1.2v9.9h-1.3l-3.2-5
				c-0.7-1.1-1.4-2.2-1.8-3.3l0,0c0.1,1.3,0.1,2.5,0.1,4.1v4.3H338.3z"/>
			<path d="M352,128.7l-0.1-0.9h0c-0.4,0.6-1.2,1.1-2.2,1.1c-1.4,0-2.2-1-2.2-2c0-1.7,1.5-2.7,4.3-2.7V124c0-0.6-0.2-1.7-1.6-1.6
				c-0.7,0-1.4,0.2-1.9,0.5l-0.3-0.9c0.6-0.4,1.5-0.6,2.4-0.6c2.2,0,2.7,1.5,2.7,2.9v2.7c0,0.6,0,1.2,0.1,1.7H352z M351.8,125.1
				c-1.4,0-3,0.2-3,1.6c0,0.9,0.6,1.2,1.2,1.2c0.9,0,1.5-0.6,1.7-1.2c0-0.1,0.1-0.3,0.1-0.4V125.1z"/>
			<path d="M355.1,123.5c0-0.7,0-1.3-0.1-1.9h1.1l0.1,1.1h0c0.4-0.7,1.1-1.3,2.3-1.3c1,0,1.7,0.6,2,1.4h0c0.2-0.4,0.5-0.7,0.8-0.9
				c0.4-0.3,0.9-0.5,1.6-0.5c1,0,2.4,0.6,2.4,3.1v4.2H364v-4c0-1.4-0.5-2.2-1.5-2.2c-0.7,0-1.3,0.5-1.5,1.2
				c-0.1,0.2-0.1,0.4-0.1,0.7v4.4h-1.3v-4.3c0-1.1-0.5-2-1.5-2c-0.8,0-1.4,0.6-1.6,1.3c-0.1,0.2-0.1,0.4-0.1,0.6v4.3h-1.3V123.5z"/>
			<path d="M368.1,125.4c0,1.8,1.1,2.5,2.4,2.5c0.9,0,1.5-0.2,2-0.4l0.2,0.9c-0.5,0.2-1.2,0.5-2.4,0.5c-2.2,0-3.5-1.5-3.5-3.6
				c0-2.2,1.3-3.9,3.4-3.9c2.3,0,2.9,2,2.9,3.4c0,0.3,0,0.5,0,0.6H368.1z M371.9,124.4c0-0.8-0.3-2.1-1.8-2.1c-1.3,0-1.9,1.2-2,2.1
				H371.9z"/>
			<path d="M374.5,122.7c0-0.5,0.4-0.9,0.9-0.9c0.5,0,0.9,0.4,0.9,0.9c0,0.5-0.3,0.9-0.9,0.9C374.8,123.7,374.5,123.3,374.5,122.7z
				 M374.5,128c0-0.5,0.4-0.9,0.9-0.9c0.5,0,0.9,0.4,0.9,0.9c0,0.5-0.3,0.9-0.9,0.9C374.8,128.9,374.5,128.5,374.5,128z"/>
			<path d="M381,118.9c0.8-0.1,1.7-0.2,2.7-0.2c1.8,0,3.2,0.4,4,1.2c0.9,0.8,1.4,2,1.4,3.6c0,1.6-0.5,3-1.4,3.9
				c-0.9,0.9-2.5,1.4-4.4,1.4c-0.9,0-1.7,0-2.3-0.1V118.9z M382.3,127.7c0.3,0.1,0.8,0.1,1.3,0.1c2.8,0,4.2-1.5,4.2-4.2
				c0-2.3-1.3-3.8-4-3.8c-0.7,0-1.2,0.1-1.5,0.1V127.7z"/>
			<path d="M397.3,125.1c0,2.6-1.8,3.8-3.5,3.8c-1.9,0-3.4-1.4-3.4-3.7c0-2.4,1.6-3.8,3.5-3.8C395.9,121.4,397.3,122.9,397.3,125.1z
				 M391.6,125.2c0,1.6,0.9,2.7,2.2,2.7c1.2,0,2.2-1.2,2.2-2.8c0-1.2-0.6-2.7-2.2-2.7C392.3,122.4,391.6,123.8,391.6,125.2z"/>
			<path d="M398.9,123.5c0-0.7,0-1.3-0.1-1.9h1.1l0.1,1.1h0c0.4-0.7,1.1-1.3,2.3-1.3c1,0,1.7,0.6,2,1.4h0c0.2-0.4,0.5-0.7,0.8-0.9
				c0.4-0.3,0.9-0.5,1.6-0.5c1,0,2.4,0.6,2.4,3.1v4.2h-1.3v-4c0-1.4-0.5-2.2-1.5-2.2c-0.7,0-1.3,0.5-1.5,1.2
				c-0.1,0.2-0.1,0.4-0.1,0.7v4.4h-1.3v-4.3c0-1.1-0.5-2-1.5-2c-0.8,0-1.4,0.6-1.6,1.3c-0.1,0.2-0.1,0.4-0.1,0.6v4.3h-1.3V123.5z"/>
			<path d="M415.2,128.7l-0.1-0.9h0c-0.4,0.6-1.2,1.1-2.2,1.1c-1.4,0-2.2-1-2.2-2c0-1.7,1.5-2.7,4.3-2.7V124c0-0.6-0.2-1.7-1.6-1.6
				c-0.7,0-1.4,0.2-1.9,0.5l-0.3-0.9c0.6-0.4,1.5-0.6,2.4-0.6c2.2,0,2.7,1.5,2.7,2.9v2.7c0,0.6,0,1.2,0.1,1.7H415.2z M415,125.1
				c-1.4,0-3,0.2-3,1.6c0,0.9,0.6,1.2,1.2,1.2c0.9,0,1.5-0.6,1.7-1.2c0-0.1,0.1-0.3,0.1-0.4V125.1z"/>
			<path d="M419.8,119.6c0,0.4-0.3,0.8-0.8,0.8c-0.5,0-0.8-0.4-0.8-0.8c0-0.4,0.3-0.8,0.8-0.8C419.5,118.8,419.8,119.1,419.8,119.6z
				 M418.3,128.7v-7.1h1.3v7.1H418.3z"/>
			<path d="M421.8,123.5c0-0.7,0-1.3-0.1-1.9h1.1l0.1,1.2h0c0.4-0.7,1.2-1.3,2.4-1.3c1,0,2.5,0.6,2.5,3v4.3h-1.3v-4.1
				c0-1.2-0.4-2.1-1.7-2.1c-0.9,0-1.5,0.6-1.7,1.3c-0.1,0.2-0.1,0.4-0.1,0.6v4.3h-1.3V123.5z"/>
			<path d="M429.8,127.4c0.4,0.2,1.1,0.5,1.7,0.5c0.9,0,1.4-0.5,1.4-1.1c0-0.6-0.4-1-1.3-1.3c-1.3-0.5-1.9-1.2-1.9-2
				c0-1.1,0.9-2.1,2.5-2.1c0.7,0,1.4,0.2,1.7,0.4l-0.3,0.9c-0.3-0.2-0.8-0.4-1.5-0.4c-0.8,0-1.2,0.4-1.2,1c0,0.6,0.4,0.9,1.4,1.2
				c1.2,0.5,1.9,1.1,1.9,2.1c0,1.3-1,2.1-2.7,2.1c-0.8,0-1.5-0.2-2-0.5L429.8,127.4z"/>
		</g>
	</g>
</g>
</svg>
