<?xml version="1.0" encoding="UTF-8"?>
<svg id="Layer_1" data-name="Layer 1" xmlns="http://www.w3.org/2000/svg" viewBox="0 0 575.83 178.1">
  <defs>
    <style>
      .cls-1 {
        letter-spacing: -.01em;
      }

      .cls-2 {
        letter-spacing: 0em;
      }

      .cls-3 {
        letter-spacing: 0em;
      }

      .cls-4 {
        letter-spacing: 0em;
      }

      .cls-5 {
        fill: #221f20;
        font-size: 14.75px;
      }

      .cls-5, .cls-6 {
        font-family: MyriadConceptRoman-Regular, 'Myriad Variable Concept';
        font-variation-settings: 'wght' 400, 'wdth' 100;
      }

      .cls-7 {
        letter-spacing: 0em;
      }

      .cls-8 {
        fill: #f1c965;
      }

      .cls-9 {
        fill: #ea9b40;
      }

      .cls-10 {
        fill: #969796;
      }

      .cls-11 {
        fill: #dd524e;
      }

      .cls-12, .cls-13, .cls-14 {
        fill: #9abd76;
      }

      .cls-15 {
        fill: #5d748e;
      }

      .cls-16 {
        letter-spacing: 0em;
      }

      .cls-17 {
        letter-spacing: .01em;
      }

      .cls-18 {
        fill: #fff;
        opacity: .86;
        stroke: #a7a9ab;
      }

      .cls-18, .cls-13, .cls-14, .cls-19, .cls-20 {
        stroke-miterlimit: 10;
      }

      .cls-21 {
        letter-spacing: 0em;
      }

      .cls-22 {
        letter-spacing: 0em;
      }

      .cls-23 {
        letter-spacing: 0em;
      }

      .cls-24 {
        letter-spacing: 0em;
      }

      .cls-25 {
        letter-spacing: .02em;
      }

      .cls-26 {
        letter-spacing: 0em;
      }

      .cls-27 {
        letter-spacing: 0em;
      }

      .cls-13 {
        stroke: #fff;
      }

      .cls-13, .cls-14, .cls-20 {
        stroke-width: .5px;
      }

      .cls-14, .cls-19, .cls-20 {
        stroke: #221f20;
      }

      .cls-28 {
        font-family: MyriadConceptRoman-Semibold, 'Myriad Variable Concept';
        font-size: 19px;
        font-variation-settings: 'wght' 600, 'wdth' 100;
        font-weight: 600;
      }

      .cls-28, .cls-6 {
        fill: #010101;
        isolation: isolate;
      }

      .cls-29 {
        letter-spacing: 0em;
      }

      .cls-30 {
        letter-spacing: 0em;
      }

      .cls-31 {
        letter-spacing: -.02em;
      }

      .cls-32 {
        letter-spacing: 0em;
      }

      .cls-33 {
        letter-spacing: .02em;
      }

      .cls-6 {
        font-size: 16px;
      }

      .cls-34 {
        letter-spacing: 0em;
      }

      .cls-35 {
        letter-spacing: 0em;
      }

      .cls-36 {
        letter-spacing: 0em;
      }

      .cls-19, .cls-20 {
        fill: none;
      }

      .cls-37 {
        letter-spacing: 0em;
      }

      .cls-38 {
        letter-spacing: 0em;
      }

      .cls-39 {
        letter-spacing: -.04em;
      }

      .cls-40 {
        letter-spacing: 0em;
      }

      .cls-41 {
        letter-spacing: 0em;
      }

      .cls-42 {
        letter-spacing: 0em;
      }

      .cls-43 {
        letter-spacing: 0em;
      }

      .cls-44 {
        letter-spacing: .01em;
      }

      .cls-45 {
        letter-spacing: 0em;
      }

      .cls-46 {
        letter-spacing: .01em;
      }

      .cls-47 {
        fill: #429489;
        stroke: #429489;
        stroke-linecap: round;
        stroke-linejoin: round;
        stroke-width: .71px;
      }

      .cls-48 {
        letter-spacing: 0em;
      }
    </style>
  </defs>
  <circle class="cls-12" cx="7.71" cy="34.72" r="5.48"/>
  <circle class="cls-9" cx="7.71" cy="59.7" r="5.48"/>
  <circle class="cls-11" cx="7.71" cy="140.6" r="5.48"/>
  <circle class="cls-47" cx="7.71" cy="86.26" r="5.48"/>
  <text class="cls-6" transform="translate(28.32 40.29)"><tspan class="cls-32" x="0" y="0">I</tspan><tspan x="3.79" y="0">s</tspan><tspan class="cls-4" x="10.13" y="0">o</tspan><tspan class="cls-25" x="18.93" y="0">c</tspan><tspan class="cls-29" x="26.38" y="0">y</tspan><tspan x="33.86" y="0">anide </tspan><tspan class="cls-36" x="74.62" y="0">S</tspan><tspan x="82.38" y="0">y</tspan><tspan class="cls-29" x="89.92" y="0">n</tspan><tspan x="98.73" y="0">thase</tspan></text>
  <text class="cls-6" transform="translate(28.33 62.33)"><tspan x="0" y="0">p450</tspan></text>
  <text class="cls-6" transform="translate(28.32 145.79)"><tspan class="cls-21" x="0" y="0">M</tspan><tspan x="12.91" y="0">ultiple domains de</tspan><tspan class="cls-3" x="137.09" y="0">t</tspan><tspan x="142.29" y="0">e</tspan><tspan class="cls-44" x="150.3" y="0">c</tspan><tspan class="cls-3" x="157.68" y="0">t</tspan><tspan class="cls-38" x="162.88" y="0">ed</tspan></text>
  <text class="cls-6" transform="translate(28.32 90.06)"><tspan class="cls-32" x="0" y="0">I</tspan><tspan x="3.79" y="0">s</tspan><tspan class="cls-48" x="10.13" y="0">o</tspan><tspan class="cls-33" x="18.93" y="0">c</tspan><tspan class="cls-30" x="26.38" y="0">y</tspan><tspan x="33.86" y="0">anide</tspan><tspan class="cls-39" x="71.23" y="0"> </tspan><tspan class="cls-17" x="74.01" y="0">H</tspan><tspan class="cls-1" x="84.6" y="0">y</tspan><tspan x="91.98" y="0">d</tspan><tspan class="cls-41" x="101" y="0">r</tspan><tspan class="cls-29" x="106.15" y="0">a</tspan><tspan class="cls-38" x="113.8" y="0">tase</tspan></text>
  <text class="cls-28" transform="translate(0 15.9)"><tspan class="cls-26" x="0" y="0">G</tspan><tspan x="12.77" y="0">ene a</tspan><tspan class="cls-4" x="56.83" y="0">r</tspan><tspan class="cls-16" x="63.61" y="0">r</tspan><tspan class="cls-34" x="70.2" y="0">o</tspan><tspan x="80.77" y="0">w </tspan><tspan class="cls-16" x="98.93" y="0">c</tspan><tspan x="107.29" y="0">olor </tspan><tspan class="cls-35" x="144.3" y="0">k</tspan><tspan class="cls-2" x="153.84" y="0">e</tspan><tspan x="163.59" y="0">y</tspan></text>
  <text class="cls-6" transform="translate(28.32 119.46)"><tspan class="cls-42" x="0" y="0">O</tspan><tspan x="11.06" y="0">ne domain de</tspan><tspan class="cls-3" x="103.26" y="0">t</tspan><tspan x="108.46" y="0">e</tspan><tspan class="cls-46" x="116.48" y="0">c</tspan><tspan class="cls-24" x="123.85" y="0">t</tspan><tspan class="cls-38" x="129.05" y="0">ed</tspan></text>
  <circle class="cls-8" cx="7.71" cy="115.16" r="5.48"/>
  <text class="cls-6" transform="translate(28.32 174.1)"><tspan class="cls-32" x="0" y="0">N</tspan><tspan x="10.5" y="0">o domains</tspan></text>
  <circle class="cls-15" cx="7.71" cy="168.12" r="5.48"/>
  <text class="cls-28" transform="translate(336.45 15.9)"><tspan class="cls-43" x="0" y="0">A</tspan><tspan class="cls-27" x="11.99" y="0">nnot</tspan><tspan class="cls-23" x="51.11" y="0">a</tspan><tspan x="60.65" y="0">tion </tspan><tspan class="cls-37" x="97.7" y="0">G</tspan><tspan x="110.41" y="0">uide</tspan></text>
  <g>
    <rect class="cls-14" x="293.77" y="103.8" width="261.65" height="23.15"/>
    <polygon class="cls-14" points="555.42 103.8 575.33 115.59 555.42 126.95 555.42 103.8"/>
    <line class="cls-19" x1="432.68" y1="54.85" x2="432.21" y2="112"/>
    <text class="cls-5" transform="translate(380.71 49.05)"><tspan x="0" y="0">NCBI </tspan><tspan class="cls-45" x="32.91" y="0">G</tspan><tspan x="42.51" y="0">ene Name</tspan></text>
    <polyline class="cls-10" points="422.42 107.51 432.32 114.58 422.38 121.17"/>
    <rect class="cls-18" x="239.17" y="97.08" width="183.08" height="35.62"/>
    <rect class="cls-12" x="554.31" y="104.18" width="1.5" height="22.4"/>
    <line class="cls-20" x1="555.09" y1="127.05" x2="556.28" y2="126.46"/>
    <line class="cls-20" x1="555.19" y1="103.79" x2="556.39" y2="104.38"/>
    <line class="cls-13" x1="554.58" y1="103.07" x2="555.92" y2="103.07"/>
    <line class="cls-13" x1="555.12" y1="102.92" x2="556.35" y2="103.44"/>
    <line class="cls-13" x1="555.21" y1="127.81" x2="556.44" y2="127.29"/>
    <line class="cls-13" x1="554.52" y1="127.69" x2="555.85" y2="127.69"/>
    <text class="cls-5" transform="translate(242.31 120.59)"><tspan x="0" y="0">NCBI </tspan><tspan class="cls-31" x="32.91" y="0">P</tspan><tspan class="cls-40" x="40.52" y="0">r</tspan><tspan x="45.2" y="0">o</tspan><tspan class="cls-22" x="53.3" y="0">t</tspan><tspan x="58.09" y="0">ein Name: </tspan><tspan class="cls-7" x="122.94" y="0">D</tspan><tspan x="132.83" y="0">omains</tspan></text>
  </g>
</svg>